<?xml version="1.0" encoding="UTF-8"?>
<svg width="32px" height="32px" viewBox="0 0 32 32" version="1.1" xmlns="http://www.w3.org/2000/svg" xmlns:xlink="http://www.w3.org/1999/xlink">
    <title>bid_block</title>
    <g id="bid_block" stroke="none" stroke-width="1" fill="none" fill-rule="evenodd">
        <path d="M16,1 C24.28,1 31,7.72 31,16 C31,24.28 24.28,31 16,31 C7.72,31 1,24.28 1,16 C1,7.72 7.72,1 16,1 Z M25.465,8.65 L18.093,16.022 L24,22.0506536 L21.7480104,24.3488562 L15.818,18.297 L10.763,23.352 L16.6067813,23.3529412 L16.6067813,25 L9.115,25 L8.65,25.465 C10.5829545,26.9827273 12.9942665,27.9127583 15.6230137,27.9941707 L16,28 C22.63,28 28,22.63 28,16 C28,13.225 27.055,10.675 25.465,8.65 L25.465,8.65 Z M16,4 C9.37,4 4,9.37 4,16 C4,18.775 4.945,21.325 6.535,23.35 L6.535,23.35 L10.288,19.596 L7,16.2687908 L9.2896162,13.9321895 L12.573,17.311 L13.724,16.16 L10.4152107,12.7834967 L12.6672004,10.4852941 L15.998,13.885 L17.149,12.735 L13.7919943,9.33660131 L16.0816105,7 L19.434,10.45 L23.35,6.535 C21.4170455,5.01727273 19.0057335,4.08724174 16.3769863,4.00582926 Z" id="Combined-Shape" fill="#000000" fill-rule="nonzero"></path>
    </g>
</svg>