<?xml version="1.0" encoding="UTF-8"?>
<svg width="32px" height="32px" viewBox="0 0 32 32" version="1.1" xmlns="http://www.w3.org/2000/svg">
    <title>bid_blocked</title>
    <g id="bid_blocked" stroke="none" stroke-width="1" fill="none" fill-rule="evenodd">
        <g id="gavel" transform="translate(7.000000, 7.000000)" fill="#000000">
            <path d="M2.2896162,6.93218954 L6.79279491,11.5661765 L4.54080527,13.8643791 L0,9.26879085 L2.2896162,6.93218954 Z M9.08161055,0 L13.5847893,4.63398693 L11.3327996,6.93218954 L6.79199435,2.33660131 L9.08161055,0 Z M3.41521074,5.78349673 L5.66720038,3.48529412 L17,15.0506536 L14.7480104,17.3488562 L3.41521074,5.78349673 Z M8.8817842e-16,16.3529412 L9.60678126,16.3529412 L9.60678126,18 L8.8817842e-16,18 L8.8817842e-16,16.3529412 Z" id="Shape" />
        </g>
        <g id="block" transform="translate(2.000000, 2.000000)" fill="#000000">
            <path d="M14,0.666666667 C6.64,0.666666667 0.666666667,6.64 0.666666667,14 C0.666666667,21.36 6.64,27.3333333 14,27.3333333 C21.36,27.3333333 27.3333333,21.36 27.3333333,14 C27.3333333,6.64 21.36,0.666666667 14,0.666666667 Z M3.33333333,14 C3.33333333,8.10666667 8.10666667,3.33333333 14,3.33333333 C16.4666667,3.33333333 18.7333333,4.17333333 20.5333333,5.58666667 L5.58666667,20.5333333 C4.17333333,18.7333333 3.33333333,16.4666667 3.33333333,14 Z M14,24.6666667 C11.5333333,24.6666667 9.26666667,23.8266667 7.46666667,22.4133333 L22.4133333,7.46666667 C23.8266667,9.26666667 24.6666667,11.5333333 24.6666667,14 C24.6666667,19.8933333 19.8933333,24.6666667 14,24.6666667 Z" id="Shape" />
        </g>
    </g>
</svg>
