<?xml version="1.0" encoding="UTF-8"?>
<svg width="32px" height="32px" viewBox="0 0 32 32" version="1.1" xmlns="http://www.w3.org/2000/svg" xmlns:xlink="http://www.w3.org/1999/xlink">
    <title>cash_in_advance</title>
    <g id="cash_in_advance" stroke="none" stroke-width="1" fill="none" fill-rule="evenodd">
        <g id="money" transform="translate(2.000000, 2.000000)" fill-rule="nonzero">
            <g id="Group">
                <rect id="Rectangle" fill="#000000" x="-4.5675e-09" y="0.525" width="10" height="5.25"></rect>
                <path d="M2.08333333,0.9 C2.083375,0.9 2.08333333,0.9 2.08333333,0.9 C2.08333333,1.725 1.337125,2.4 0.416666667,2.4 L0.416666667,3.8625 C1.337125,3.8625 2.08333333,4.5375 2.08333333,5.4 L7.91666667,5.4 L7.91666667,5.3625 C7.91666667,4.5375 8.66291667,3.8625 9.58333333,3.8625 L9.58333333,2.4 C8.66291667,2.4 7.91666667,1.725 7.91666667,0.9 L2.08333333,0.9 Z" id="Path" fill="#FFFFFF"></path>
                <path d="M6.66666667,3.15 C6.66666667,4.185375 5.92041667,5.025 5,5.025 C4.07954167,5.025 3.33333333,4.185375 3.33333333,3.15 C3.33333333,2.114475 4.07954167,1.275 5,1.275 C5.92041667,1.275 6.66666667,2.114475 6.66666667,3.15 Z" id="Path" fill="#000000"></path>
            </g>
            <path d="M4,2.35 L5.236,2 L5.3595,2 L5.3595,4.5 C5.3595,4.65 5.3705,4.75 5.393,4.8 C5.418,4.85 5.468,4.85 5.543,4.9 L6,4.9 L6,5 L4.09,5 L4.09,4.9 L4.5545,4.9 C4.624,4.85 4.673,4.85 4.7005,4.8 C4.728,4.75 4.7415,4.65 4.7415,4.5 L4.7415,2.9 C4.7415,2.65 4.729,2.55 4.704,2.45 C4.6865,2.4 4.654,2.4 4.6065,2.35 L4.442,2.35 C4.3495,2.35 4.221,2.35 4.056,2.4 L4,2.35" id="Path" fill="#FFFFFF"></path>
            <g id="Group" transform="translate(0.000000, 3.000000)">
                <g transform="translate(0.179358, 3.090833)" id="Path">
                    <path d="M1.74372346,0.488645833 C1.38319407,0.488645833 1.06716432,0.563974398 0.842193983,0.675010417 L0.507622716,0.675010417 L0.507622716,0.779821858 L0.507622716,0.838079427 L0.507622716,0.861375 L0.507622716,0.884670573 L0.507622716,1.04773958 C0.507622716,1.3565457 1.06098381,1.60683333 1.74372346,1.60683333 C2.4264631,1.60683333 2.9798242,1.3565457 2.9798242,1.04773958 L2.9798242,0.884670573 L2.9798242,0.861375 L2.9798242,0.838079427 L2.9798242,0.779821858 L2.9798242,0.675010417 L2.64525293,0.675010417 C2.4202826,0.563974398 2.10425284,0.488645833 1.74372346,0.488645833 Z" fill="#000000"></path>
                    <path d="M2.97976099,0.67046875 C2.97976099,0.979237592 2.42639989,1.2295625 1.74366025,1.2295625 C1.0609206,1.2295625 0.507559506,0.979237592 0.507559506,0.67046875 C0.507559506,0.361699908 1.0609206,0.111375 1.74366025,0.111375 C2.42639989,0.111375 2.97976099,0.361699908 2.97976099,0.67046875 Z" fill="#AAAAAA"></path>
                </g>
                <g id="Path">
                    <g transform="translate(0.179358, 2.345417)">
                        <path d="M1.74372346,0.488645833 C1.38319407,0.488645833 1.06716432,0.563974398 0.842193983,0.675010417 L0.507622716,0.675010417 L0.507622716,0.779821858 L0.507622716,0.838079427 L0.507622716,0.861375 L0.507622716,0.884670573 L0.507622716,1.04773958 C0.507622716,1.3565457 1.06098381,1.60683333 1.74372346,1.60683333 C2.4264631,1.60683333 2.9798242,1.3565457 2.9798242,1.04773958 L2.9798242,0.884670573 L2.9798242,0.861375 L2.9798242,0.838079427 L2.9798242,0.779821858 L2.9798242,0.675010417 L2.64525293,0.675010417 C2.4202826,0.563974398 2.10425284,0.488645833 1.74372346,0.488645833 Z" fill="#000000"></path>
                        <path d="M2.97976099,0.67046875 C2.97976099,0.979237592 2.42639989,1.2295625 1.74366025,1.2295625 C1.0609206,1.2295625 0.507559506,0.979237592 0.507559506,0.67046875 C0.507559506,0.361699908 1.0609206,0.111375 1.74366025,0.111375 C2.42639989,0.111375 2.97976099,0.361699908 2.97976099,0.67046875 Z" fill="#AAAAAA"></path>
                    </g>
                    <g transform="translate(0.179358, 1.600042)">
                        <path d="M1.74372346,0.488645833 C1.38319407,0.488645833 1.06716432,0.563974398 0.842193983,0.675010417 L0.507622716,0.675010417 L0.507622716,0.779821858 L0.507622716,0.838079427 L0.507622716,0.861375 L0.507622716,0.884670573 L0.507622716,1.04773958 C0.507622716,1.3565457 1.06098381,1.60683333 1.74372346,1.60683333 C2.4264631,1.60683333 2.9798242,1.3565457 2.9798242,1.04773958 L2.9798242,0.884670573 L2.9798242,0.861375 L2.9798242,0.838079427 L2.9798242,0.779821858 L2.9798242,0.675010417 L2.64525293,0.675010417 C2.4202826,0.563974398 2.10425284,0.488645833 1.74372346,0.488645833 Z" fill="#000000"></path>
                        <path d="M2.97976099,0.67046875 C2.97976099,0.979237592 2.42639989,1.2295625 1.74366025,1.2295625 C1.0609206,1.2295625 0.507559506,0.979237592 0.507559506,0.67046875 C0.507559506,0.361699908 1.0609206,0.111375 1.74366025,0.111375 C2.42639989,0.111375 2.97976099,0.361699908 2.97976099,0.67046875 Z" fill="#AAAAAA"></path>
                    </g>
                    <g transform="translate(0.179358, 0.854542)">
                        <path d="M1.74372346,0.488645833 C1.38319407,0.488645833 1.06716432,0.563974398 0.842193983,0.675010417 L0.507622716,0.675010417 L0.507622716,0.779821858 L0.507622716,0.838079427 L0.507622716,0.861375 L0.507622716,0.884670573 L0.507622716,1.04773958 C0.507622716,1.3565457 1.06098381,1.60683333 1.74372346,1.60683333 C2.4264631,1.60683333 2.9798242,1.3565457 2.9798242,1.04773958 L2.9798242,0.884670573 L2.9798242,0.861375 L2.9798242,0.838079427 L2.9798242,0.779821858 L2.9798242,0.675010417 L2.64525293,0.675010417 C2.4202826,0.563974398 2.10425284,0.488645833 1.74372346,0.488645833 Z" fill="#000000"></path>
                        <path d="M2.97976099,0.67046875 C2.97976099,0.979237592 2.42639989,1.2295625 1.74366025,1.2295625 C1.0609206,1.2295625 0.507559506,0.979237592 0.507559506,0.67046875 C0.507559506,0.361699908 1.0609206,0.111375 1.74366025,0.111375 C2.42639989,0.111375 2.97976099,0.361699908 2.97976099,0.67046875 Z" fill="#AAAAAA"></path>
                    </g>
                    <g transform="translate(3.063309, 3.090833)">
                        <path d="M1.74372346,0.488645833 C1.38319407,0.488645833 1.06716432,0.563974398 0.842193983,0.675010417 L0.507622716,0.675010417 L0.507622716,0.779821858 L0.507622716,0.838079427 L0.507622716,0.861375 L0.507622716,0.884670573 L0.507622716,1.04773958 C0.507622716,1.3565457 1.06098381,1.60683333 1.74372346,1.60683333 C2.4264631,1.60683333 2.9798242,1.3565457 2.9798242,1.04773958 L2.9798242,0.884670573 L2.9798242,0.861375 L2.9798242,0.838079427 L2.9798242,0.779821858 L2.9798242,0.675010417 L2.64525293,0.675010417 C2.4202826,0.563974398 2.10425284,0.488645833 1.74372346,0.488645833 Z" fill="#000000"></path>
                        <path d="M2.97976099,0.67046875 C2.97976099,0.979237592 2.42639989,1.2295625 1.74366025,1.2295625 C1.0609206,1.2295625 0.507559506,0.979237592 0.507559506,0.67046875 C0.507559506,0.361699908 1.0609206,0.111375 1.74366025,0.111375 C2.42639989,0.111375 2.97976099,0.361699908 2.97976099,0.67046875 Z" fill="#AAAAAA"></path>
                    </g>
                    <g transform="translate(3.887407, 2.718333)">
                        <path d="M1.74372346,0.488645833 C1.38319407,0.488645833 1.06716432,0.563974398 0.842193983,0.675010417 L0.507622716,0.675010417 L0.507622716,0.779821858 L0.507622716,0.838079427 L0.507622716,0.861375 L0.507622716,0.884670573 L0.507622716,1.04773958 C0.507622716,1.3565457 1.06098381,1.60683333 1.74372346,1.60683333 C2.4264631,1.60683333 2.9798242,1.3565457 2.9798242,1.04773958 L2.9798242,0.884670573 L2.9798242,0.861375 L2.9798242,0.838079427 L2.9798242,0.779821858 L2.9798242,0.675010417 L2.64525293,0.675010417 C2.4202826,0.563974398 2.10425284,0.488645833 1.74372346,0.488645833 Z" fill="#000000"></path>
                        <path d="M2.97976099,0.67046875 C2.97976099,0.979237592 2.42639989,1.2295625 1.74366025,1.2295625 C1.0609206,1.2295625 0.507559506,0.979237592 0.507559506,0.67046875 C0.507559506,0.361699908 1.0609206,0.111375 1.74366025,0.111375 C2.42639989,0.111375 2.97976099,0.361699908 2.97976099,0.67046875 Z" fill="#AAAAAA"></path>
                    </g>
                    <g transform="translate(0.179358, 0.109083)">
                        <path d="M1.74372346,0.488645833 C1.38319407,0.488645833 1.06716432,0.563974398 0.842193983,0.675010417 L0.507622716,0.675010417 L0.507622716,0.779821858 L0.507622716,0.838079427 L0.507622716,0.861375 L0.507622716,0.884670573 L0.507622716,1.04773958 C0.507622716,1.3565457 1.06098381,1.60683333 1.74372346,1.60683333 C2.4264631,1.60683333 2.9798242,1.3565457 2.9798242,1.04773958 L2.9798242,0.884670573 L2.9798242,0.861375 L2.9798242,0.838079427 L2.9798242,0.779821858 L2.9798242,0.675010417 L2.64525293,0.675010417 C2.4202826,0.563974398 2.10425284,0.488645833 1.74372346,0.488645833 Z" fill="#000000"></path>
                        <path d="M2.97976099,0.67046875 C2.97976099,0.979237592 2.42639989,1.2295625 1.74366025,1.2295625 C1.0609206,1.2295625 0.507559506,0.979237592 0.507559506,0.67046875 C0.507559506,0.361699908 1.0609206,0.111375 1.74366025,0.111375 C2.42639989,0.111375 2.97976099,0.361699908 2.97976099,0.67046875 Z" fill="#AAAAAA"></path>
                    </g>
                </g>
            </g>
        </g>
        <g id="check-24px" transform="translate(8.000000, 3.000000)">
            <polygon id="Path" points="0 0 11 0 11 11 0 11"></polygon>
            <polygon id="Path" fill="#000000" fill-rule="nonzero" points="4.54235361 7.73378076 2.64582149 5.86800895 2 6.49888143 4.54235361 9 10 3.63087248 9.35872655 3"></polygon>
        </g>
        <g id="local_shipping-24px" transform="translate(9.000000, 25.000000) scale(1, -1) rotate(180.000000) translate(-9.000000, -25.000000) translate(2.000000, 18.000000)">
            <polygon id="Path" points="0 0 14 0 14 14 0 14"></polygon>
            <path d="M12.2272727,4.25 L10.4545455,4.25 L10.4545455,2 L2.18181818,2 C1.53181818,2 1,2.50625 1,3.125 L1,9.3125 L2.18181818,9.3125 C2.18181818,10.24625 2.97363636,11 3.95454545,11 C4.93545455,11 5.72727273,10.24625 5.72727273,9.3125 L9.27272727,9.3125 C9.27272727,10.24625 10.0645455,11 11.0454545,11 C12.0263636,11 12.8181818,10.24625 12.8181818,9.3125 L14,9.3125 L14,6.5 L12.2272727,4.25 Z M3.95454545,10.15625 C3.46409091,10.15625 3.06818182,9.779375 3.06818182,9.3125 C3.06818182,8.845625 3.46409091,8.46875 3.95454545,8.46875 C4.445,8.46875 4.84090909,8.845625 4.84090909,9.3125 C4.84090909,9.779375 4.445,10.15625 3.95454545,10.15625 Z M11.9318182,5.09375 L13.09,6.5 L10.4545455,6.5 L10.4545455,5.09375 L11.9318182,5.09375 Z M11.0454545,10.15625 C10.555,10.15625 10.1590909,9.779375 10.1590909,9.3125 C10.1590909,8.845625 10.555,8.46875 11.0454545,8.46875 C11.5359091,8.46875 11.9318182,8.845625 11.9318182,9.3125 C11.9318182,9.779375 11.5359091,10.15625 11.0454545,10.15625 Z" id="Shape" fill="#000000" fill-rule="nonzero"></path>
        </g>
        <g id="subdirectory_arrow_left-24px" transform="translate(15.000000, 4.000000)">
            <polygon id="Path" points="0 11 14 11 14 25 0 25"></polygon>
            <polygon id="Path" fill="#000000" fill-rule="nonzero" points="8.6 15.9411765 9.452 16.7764706 7.298 18.8823529 12.8 18.8823529 12.8 1.15682292 5 1.15228125 5 -0.00454166667 14 -2.76948603e-15 14 20.0588235 7.298 20.0588235 9.452 22.1647059 8.6 23 5 19.4705882"></polygon>
        </g>
    </g>
</svg>