<?xml version="1.0" encoding="UTF-8"?>
<svg width="32px" height="32px" viewBox="0 0 32 32" version="1.1" xmlns="http://www.w3.org/2000/svg" xmlns:xlink="http://www.w3.org/1999/xlink">
    <title>cash_on_delivery</title>
    <g id="cash_on_delivery" stroke="none" stroke-width="1" fill="none" fill-rule="evenodd">
        <g id="hand_open" transform="translate(16.000000, 25.000000) scale(-1, 1) translate(-16.000000, -25.000000) translate(1.000000, 20.000000)" fill="#000000" fill-rule="nonzero">
            <path d="M29.7118968,1.2664109 C29.4285174,0.772025513 28.9587367,0.41093542 28.4069662,0.26339495 C27.8551957,0.115854481 27.2671519,0.194087969 26.7735308,0.480707578 L22.167463,3.12352784 C21.9556386,2.1357124 21.080405,1.42947649 20.0668896,1.42855149 L14.548495,1.42855149 L14.4051601,1.33283854 C11.7855184,-0.414345502 8.37200646,-0.432902335 5.73339704,1.28569634 L5.73339704,0.714275747 C5.73339704,0.319792145 5.41253088,0 5.01672241,0 L0.71667463,0 C0.320866161,0 0,0.319792145 0,0.714275747 L0,9.28558471 C0,9.68006831 0.320866161,9.99993182 0.71667463,9.99993182 L5.01672241,9.99993182 C5.41253088,9.99993182 5.73339704,9.68006831 5.73339704,9.28558471 L5.73339704,9.18844321 L6.40277114,9.63129417 C6.75700045,9.87143808 7.17550738,9.99993182 7.60391782,9.99993182 L18.2465361,9.99993182 C18.6241667,10.0029725 18.995614,9.9042514 19.321548,9.71415016 L28.9249881,4.19279864 C29.5901281,3.80718182 29.9995223,3.09830847 30,2.33139604 C30,1.95729277 29.9004704,1.58987796 29.7118968,1.2664109 L29.7118968,1.2664109 Z M4.30004778,8.57130897 L1.43334926,8.57130897 L1.43334926,1.42855149 L4.30004778,1.42855149 L4.30004778,8.57130897 Z M28.2083134,2.95281594 L18.5941233,8.48059595 C18.4887632,8.54194176 18.3685414,8.57331715 18.2465361,8.57130897 L7.60391782,8.57130897 C7.46133517,8.57158794 7.32206517,8.52847652 7.20473005,8.44773926 L5.73339704,7.47418142 L5.73339704,2.85710299 C5.87464548,2.85720528 6.01277484,2.81570638 6.13043478,2.73781894 L6.45580506,2.52353621 C8.62103646,1.07923104 11.4465698,1.07923104 13.6118012,2.52353621 L13.9364548,2.73781894 C14.0541148,2.81570638 14.1922442,2.85720528 14.3334926,2.85710299 L20.0668896,2.85710299 C20.4626981,2.85710299 20.7835643,3.17689513 20.7835643,3.57137874 C20.7835643,3.96586234 20.4626981,4.28565448 20.0668896,4.28565448 L15.7668419,4.28565448 C15.3710334,4.28565448 15.0501672,4.60544663 15.0501672,4.99993023 C15.0501672,5.39441383 15.3710334,5.71420598 15.7668419,5.71420598 L20.0668896,5.71420598 C20.5913582,5.71246613 21.0967961,5.5181895 21.4866221,5.16849931 L27.4973722,1.71426179 C27.6586206,1.61954684 27.8514274,1.59378793 28.0320115,1.64283422 C28.2175916,1.69181702 28.37548,1.81337812 28.4698997,1.97997237 C28.5326723,2.08552101 28.5660699,2.20584319 28.5666517,2.32853894 C28.5670702,2.58532901 28.4306324,2.82302409 28.2083134,2.95281594 Z" id="Shape"></path>
        </g>
        <g id="money" transform="translate(1.000000, 1.000000)">
            <g id="Group" fill="#000000" fill-rule="nonzero">
                <path d="M30,0.0453333333 L30,16.252 L0,16.252 L0,0.0453333333 L30,0.0453333333 Z M23.75,1.292 L6.25,1.292 L6.25,1.292 C6.25,3.80611111 4.011375,5.86311111 1.25,5.86311111 L1.25,10.3199444 C4.011375,10.3199444 6.25,12.3769444 6.25,15.0053333 L23.75,15.0053333 L23.75,14.8910556 C23.75,12.3769444 25.98875,10.3199444 28.75,10.3199444 L28.75,5.86311111 C25.98875,5.86311111 23.75,3.80611111 23.75,1.292 Z" id="Combined-Shape"></path>
                <path d="M20,8 C20,10.761 17.76125,13 15,13 C12.238625,13 10,10.761 10,8 C10,5.2386 12.238625,3 15,3 C17.76125,3 20,5.2386 20,8 Z" id="Path"></path>
            </g>
            <path d="M13,5.7 L15.472,5 L15.719,5 L15.719,10 C15.719,10.3 15.741,10.5 15.786,10.6 C15.836,10.7 15.936,10.7 16.086,10.8 L17,10.8 L17,11 L13.18,11 L13.18,10.8 L14.109,10.8 C14.248,10.7 14.346,10.7 14.401,10.6 C14.456,10.5 14.483,10.3 14.483,10 L14.483,6.8 C14.483,6.3 14.458,6.1 14.408,5.9 C14.373,5.8 14.308,5.8 14.213,5.7 L13.884,5.7 C13.699,5.7 13.442,5.7 13.112,5.8 L13,5.7" id="Path" fill="#ECF0F1" fill-rule="nonzero"></path>
            <g id="Group" transform="translate(1.000000, 6.000000)"></g>
        </g>
    </g>
</svg>