<?xml version="1.0" encoding="UTF-8"?>
<svg width="32px" height="32px" viewBox="0 0 32 32" version="1.1" xmlns="http://www.w3.org/2000/svg" xmlns:xlink="http://www.w3.org/1999/xlink">
    <title>cash_on_delivery</title>
    <g id="cash_on_delivery" stroke="none" stroke-width="1" fill="none" fill-rule="evenodd">
        <g id="hand_right" transform="translate(14.000000, 9.000000)" fill="#000000" fill-rule="nonzero">
            <path d="M16.8367415,0.75984654 C16.6761598,0.463215308 16.4099508,0.246561252 16.0972809,0.15803697 C15.7846109,0.0695126884 15.4513861,0.116452781 15.1716675,0.288424547 L12.5615624,1.87411671 C12.4415285,1.28142744 11.9455628,0.857685897 11.3712375,0.857130897 L8.24414716,0.857130897 L8.16292403,0.799703126 C6.67846042,-0.248607301 4.744137,-0.259741401 3.24892499,0.771417807 L3.24892499,0.428565448 C3.24892499,0.191875287 3.06710083,0 2.84280936,0 L0.406115624,0 C0.181824158,0 0,0.191875287 0,0.428565448 L0,5.57135083 C0,5.80804099 0.181824158,5.99995909 0.406115624,5.99995909 L2.84280936,5.99995909 C3.06710083,5.99995909 3.24892499,5.80804099 3.24892499,5.57135083 L3.24892499,5.51306593 L3.62823698,5.7787765 C3.82896692,5.92286285 4.06612085,5.99995909 4.30888677,5.99995909 L10.3397038,5.99995909 C10.5536944,6.00178349 10.7641813,5.94255084 10.9488772,5.8284901 L16.3908266,2.51567918 C16.7677393,2.28430909 16.9997293,1.85898508 17,1.39883762 C17,1.17437566 16.9435999,0.953926779 16.8367415,0.75984654 L16.8367415,0.75984654 Z M2.43669374,5.14278538 L0.812231247,5.14278538 L0.812231247,0.857130897 L2.43669374,0.857130897 L2.43669374,5.14278538 Z M15.9847109,1.77168956 L10.5366699,5.08835757 C10.4769658,5.12516506 10.4088401,5.14399029 10.3397038,5.14278538 L4.30888677,5.14278538 C4.22808993,5.14295276 4.14917026,5.11708591 4.08268036,5.06864356 L3.24892499,4.48450885 L3.24892499,1.71426179 C3.32896577,1.71432317 3.40723907,1.68942383 3.47391304,1.64269136 L3.65828954,1.51412173 C4.88525399,0.647538626 6.48638958,0.647538626 7.71335404,1.51412173 L7.89732441,1.64269136 C7.96399838,1.68942383 8.04227169,1.71432317 8.12231247,1.71426179 L11.3712375,1.71426179 C11.5955289,1.71426179 11.7773531,1.90613708 11.7773531,2.14282724 C11.7773531,2.3795174 11.5955289,2.57139269 11.3712375,2.57139269 L8.93454372,2.57139269 C8.71025225,2.57139269 8.52842809,2.76326798 8.52842809,2.99995814 C8.52842809,3.2366483 8.71025225,3.42852359 8.93454372,3.42852359 L11.3712375,3.42852359 C11.6684363,3.42747968 11.9548511,3.3109137 12.1757525,3.10109958 L15.5818442,1.02855708 C15.6732183,0.971728102 15.7824755,0.956272757 15.8848065,0.985700531 C15.9899686,1.01509021 16.0794386,1.08802687 16.1329431,1.18798342 C16.1685143,1.2513126 16.1874396,1.32350591 16.1877693,1.39712336 C16.1880065,1.5511974 16.1106917,1.69381446 15.9847109,1.77168956 Z" id="Shape" transform="translate(8.500000, 3.000000) scale(-1, 1) translate(-8.500000, -3.000000) "></path>
        </g>
        <g id="money" transform="translate(16.000000, 1.000000)" fill-rule="nonzero">
            <g id="Group">
                <rect id="Rectangle" fill="#000000" x="-4.5675e-09" y="0.525" width="10" height="5.25"></rect>
                <path d="M2.08333333,0.9 C2.083375,0.9 2.08333333,0.9 2.08333333,0.9 C2.08333333,1.725 1.337125,2.4 0.416666667,2.4 L0.416666667,3.8625 C1.337125,3.8625 2.08333333,4.5375 2.08333333,5.4 L7.91666667,5.4 L7.91666667,5.3625 C7.91666667,4.5375 8.66291667,3.8625 9.58333333,3.8625 L9.58333333,2.4 C8.66291667,2.4 7.91666667,1.725 7.91666667,0.9 L2.08333333,0.9 Z" id="Path" fill="#FFFFFF"></path>
                <path d="M6.66666667,3.15 C6.66666667,4.185375 5.92041667,5.025 5,5.025 C4.07954167,5.025 3.33333333,4.185375 3.33333333,3.15 C3.33333333,2.114475 4.07954167,1.275 5,1.275 C5.92041667,1.275 6.66666667,2.114475 6.66666667,3.15 Z" id="Path" fill="#000000"></path>
            </g>
            <path d="M4,2.35 L5.236,2 L5.3595,2 L5.3595,4.5 C5.3595,4.65 5.3705,4.75 5.393,4.8 C5.418,4.85 5.468,4.85 5.543,4.9 L6,4.9 L6,5 L4.09,5 L4.09,4.9 L4.5545,4.9 C4.624,4.85 4.673,4.85 4.7005,4.8 C4.728,4.75 4.7415,4.65 4.7415,4.5 L4.7415,2.9 C4.7415,2.65 4.729,2.55 4.704,2.45 C4.6865,2.4 4.654,2.4 4.6065,2.35 L4.442,2.35 C4.3495,2.35 4.221,2.35 4.056,2.4 L4,2.35" id="Path" fill="#FFFFFF"></path>
            <g id="Group" transform="translate(0.000000, 3.000000)">
                <g transform="translate(0.179358, 3.090833)" id="Path">
                    <path d="M1.74372346,0.488645833 C1.38319407,0.488645833 1.06716432,0.563974398 0.842193983,0.675010417 L0.507622716,0.675010417 L0.507622716,0.779821858 L0.507622716,0.838079427 L0.507622716,0.861375 L0.507622716,0.884670573 L0.507622716,1.04773958 C0.507622716,1.3565457 1.06098381,1.60683333 1.74372346,1.60683333 C2.4264631,1.60683333 2.9798242,1.3565457 2.9798242,1.04773958 L2.9798242,0.884670573 L2.9798242,0.861375 L2.9798242,0.838079427 L2.9798242,0.779821858 L2.9798242,0.675010417 L2.64525293,0.675010417 C2.4202826,0.563974398 2.10425284,0.488645833 1.74372346,0.488645833 Z" fill="#000000"></path>
                    <path d="M2.97976099,0.67046875 C2.97976099,0.979237592 2.42639989,1.2295625 1.74366025,1.2295625 C1.0609206,1.2295625 0.507559506,0.979237592 0.507559506,0.67046875 C0.507559506,0.361699908 1.0609206,0.111375 1.74366025,0.111375 C2.42639989,0.111375 2.97976099,0.361699908 2.97976099,0.67046875 Z" fill="#AAAAAA"></path>
                </g>
                <g id="Path">
                    <g transform="translate(0.179358, 2.345417)">
                        <path d="M1.74372346,0.488645833 C1.38319407,0.488645833 1.06716432,0.563974398 0.842193983,0.675010417 L0.507622716,0.675010417 L0.507622716,0.779821858 L0.507622716,0.838079427 L0.507622716,0.861375 L0.507622716,0.884670573 L0.507622716,1.04773958 C0.507622716,1.3565457 1.06098381,1.60683333 1.74372346,1.60683333 C2.4264631,1.60683333 2.9798242,1.3565457 2.9798242,1.04773958 L2.9798242,0.884670573 L2.9798242,0.861375 L2.9798242,0.838079427 L2.9798242,0.779821858 L2.9798242,0.675010417 L2.64525293,0.675010417 C2.4202826,0.563974398 2.10425284,0.488645833 1.74372346,0.488645833 Z" fill="#000000"></path>
                        <path d="M2.97976099,0.67046875 C2.97976099,0.979237592 2.42639989,1.2295625 1.74366025,1.2295625 C1.0609206,1.2295625 0.507559506,0.979237592 0.507559506,0.67046875 C0.507559506,0.361699908 1.0609206,0.111375 1.74366025,0.111375 C2.42639989,0.111375 2.97976099,0.361699908 2.97976099,0.67046875 Z" fill="#AAAAAA"></path>
                    </g>
                    <g transform="translate(0.179358, 1.600042)">
                        <path d="M1.74372346,0.488645833 C1.38319407,0.488645833 1.06716432,0.563974398 0.842193983,0.675010417 L0.507622716,0.675010417 L0.507622716,0.779821858 L0.507622716,0.838079427 L0.507622716,0.861375 L0.507622716,0.884670573 L0.507622716,1.04773958 C0.507622716,1.3565457 1.06098381,1.60683333 1.74372346,1.60683333 C2.4264631,1.60683333 2.9798242,1.3565457 2.9798242,1.04773958 L2.9798242,0.884670573 L2.9798242,0.861375 L2.9798242,0.838079427 L2.9798242,0.779821858 L2.9798242,0.675010417 L2.64525293,0.675010417 C2.4202826,0.563974398 2.10425284,0.488645833 1.74372346,0.488645833 Z" fill="#000000"></path>
                        <path d="M2.97976099,0.67046875 C2.97976099,0.979237592 2.42639989,1.2295625 1.74366025,1.2295625 C1.0609206,1.2295625 0.507559506,0.979237592 0.507559506,0.67046875 C0.507559506,0.361699908 1.0609206,0.111375 1.74366025,0.111375 C2.42639989,0.111375 2.97976099,0.361699908 2.97976099,0.67046875 Z" fill="#AAAAAA"></path>
                    </g>
                    <g transform="translate(0.179358, 0.854542)">
                        <path d="M1.74372346,0.488645833 C1.38319407,0.488645833 1.06716432,0.563974398 0.842193983,0.675010417 L0.507622716,0.675010417 L0.507622716,0.779821858 L0.507622716,0.838079427 L0.507622716,0.861375 L0.507622716,0.884670573 L0.507622716,1.04773958 C0.507622716,1.3565457 1.06098381,1.60683333 1.74372346,1.60683333 C2.4264631,1.60683333 2.9798242,1.3565457 2.9798242,1.04773958 L2.9798242,0.884670573 L2.9798242,0.861375 L2.9798242,0.838079427 L2.9798242,0.779821858 L2.9798242,0.675010417 L2.64525293,0.675010417 C2.4202826,0.563974398 2.10425284,0.488645833 1.74372346,0.488645833 Z" fill="#000000"></path>
                        <path d="M2.97976099,0.67046875 C2.97976099,0.979237592 2.42639989,1.2295625 1.74366025,1.2295625 C1.0609206,1.2295625 0.507559506,0.979237592 0.507559506,0.67046875 C0.507559506,0.361699908 1.0609206,0.111375 1.74366025,0.111375 C2.42639989,0.111375 2.97976099,0.361699908 2.97976099,0.67046875 Z" fill="#AAAAAA"></path>
                    </g>
                    <g transform="translate(3.063309, 3.090833)">
                        <path d="M1.74372346,0.488645833 C1.38319407,0.488645833 1.06716432,0.563974398 0.842193983,0.675010417 L0.507622716,0.675010417 L0.507622716,0.779821858 L0.507622716,0.838079427 L0.507622716,0.861375 L0.507622716,0.884670573 L0.507622716,1.04773958 C0.507622716,1.3565457 1.06098381,1.60683333 1.74372346,1.60683333 C2.4264631,1.60683333 2.9798242,1.3565457 2.9798242,1.04773958 L2.9798242,0.884670573 L2.9798242,0.861375 L2.9798242,0.838079427 L2.9798242,0.779821858 L2.9798242,0.675010417 L2.64525293,0.675010417 C2.4202826,0.563974398 2.10425284,0.488645833 1.74372346,0.488645833 Z" fill="#000000"></path>
                        <path d="M2.97976099,0.67046875 C2.97976099,0.979237592 2.42639989,1.2295625 1.74366025,1.2295625 C1.0609206,1.2295625 0.507559506,0.979237592 0.507559506,0.67046875 C0.507559506,0.361699908 1.0609206,0.111375 1.74366025,0.111375 C2.42639989,0.111375 2.97976099,0.361699908 2.97976099,0.67046875 Z" fill="#AAAAAA"></path>
                    </g>
                    <g transform="translate(3.887407, 2.718333)">
                        <path d="M1.74372346,0.488645833 C1.38319407,0.488645833 1.06716432,0.563974398 0.842193983,0.675010417 L0.507622716,0.675010417 L0.507622716,0.779821858 L0.507622716,0.838079427 L0.507622716,0.861375 L0.507622716,0.884670573 L0.507622716,1.04773958 C0.507622716,1.3565457 1.06098381,1.60683333 1.74372346,1.60683333 C2.4264631,1.60683333 2.9798242,1.3565457 2.9798242,1.04773958 L2.9798242,0.884670573 L2.9798242,0.861375 L2.9798242,0.838079427 L2.9798242,0.779821858 L2.9798242,0.675010417 L2.64525293,0.675010417 C2.4202826,0.563974398 2.10425284,0.488645833 1.74372346,0.488645833 Z" fill="#000000"></path>
                        <path d="M2.97976099,0.67046875 C2.97976099,0.979237592 2.42639989,1.2295625 1.74366025,1.2295625 C1.0609206,1.2295625 0.507559506,0.979237592 0.507559506,0.67046875 C0.507559506,0.361699908 1.0609206,0.111375 1.74366025,0.111375 C2.42639989,0.111375 2.97976099,0.361699908 2.97976099,0.67046875 Z" fill="#AAAAAA"></path>
                    </g>
                    <g transform="translate(0.179358, 0.109083)">
                        <path d="M1.74372346,0.488645833 C1.38319407,0.488645833 1.06716432,0.563974398 0.842193983,0.675010417 L0.507622716,0.675010417 L0.507622716,0.779821858 L0.507622716,0.838079427 L0.507622716,0.861375 L0.507622716,0.884670573 L0.507622716,1.04773958 C0.507622716,1.3565457 1.06098381,1.60683333 1.74372346,1.60683333 C2.4264631,1.60683333 2.9798242,1.3565457 2.9798242,1.04773958 L2.9798242,0.884670573 L2.9798242,0.861375 L2.9798242,0.838079427 L2.9798242,0.779821858 L2.9798242,0.675010417 L2.64525293,0.675010417 C2.4202826,0.563974398 2.10425284,0.488645833 1.74372346,0.488645833 Z" fill="#000000"></path>
                        <path d="M2.97976099,0.67046875 C2.97976099,0.979237592 2.42639989,1.2295625 1.74366025,1.2295625 C1.0609206,1.2295625 0.507559506,0.979237592 0.507559506,0.67046875 C0.507559506,0.361699908 1.0609206,0.111375 1.74366025,0.111375 C2.42639989,0.111375 2.97976099,0.361699908 2.97976099,0.67046875 Z" fill="#AAAAAA"></path>
                    </g>
                </g>
            </g>
        </g>
        <g id="hand_left" transform="translate(1.000000, 25.000000)" fill="#000000" fill-rule="nonzero">
            <path d="M16.8367415,0.75984654 C16.6761598,0.463215308 16.4099508,0.246561252 16.0972809,0.15803697 C15.7846109,0.0695126884 15.4513861,0.116452781 15.1716675,0.288424547 L12.5615624,1.87411671 C12.4415285,1.28142744 11.9455628,0.857685897 11.3712375,0.857130897 L8.24414716,0.857130897 L8.16292403,0.799703126 C6.67846042,-0.248607301 4.744137,-0.259741401 3.24892499,0.771417807 L3.24892499,0.428565448 C3.24892499,0.191875287 3.06710083,0 2.84280936,0 L0.406115624,0 C0.181824158,0 0,0.191875287 0,0.428565448 L0,5.57135083 C0,5.80804099 0.181824158,5.99995909 0.406115624,5.99995909 L2.84280936,5.99995909 C3.06710083,5.99995909 3.24892499,5.80804099 3.24892499,5.57135083 L3.24892499,5.51306593 L3.62823698,5.7787765 C3.82896692,5.92286285 4.06612085,5.99995909 4.30888677,5.99995909 L10.3397038,5.99995909 C10.5536944,6.00178349 10.7641813,5.94255084 10.9488772,5.8284901 L16.3908266,2.51567918 C16.7677393,2.28430909 16.9997293,1.85898508 17,1.39883762 C17,1.17437566 16.9435999,0.953926779 16.8367415,0.75984654 L16.8367415,0.75984654 Z M2.43669374,5.14278538 L0.812231247,5.14278538 L0.812231247,0.857130897 L2.43669374,0.857130897 L2.43669374,5.14278538 Z M15.9847109,1.77168956 L10.5366699,5.08835757 C10.4769658,5.12516506 10.4088401,5.14399029 10.3397038,5.14278538 L4.30888677,5.14278538 C4.22808993,5.14295276 4.14917026,5.11708591 4.08268036,5.06864356 L3.24892499,4.48450885 L3.24892499,1.71426179 C3.32896577,1.71432317 3.40723907,1.68942383 3.47391304,1.64269136 L3.65828954,1.51412173 C4.88525399,0.647538626 6.48638958,0.647538626 7.71335404,1.51412173 L7.89732441,1.64269136 C7.96399838,1.68942383 8.04227169,1.71432317 8.12231247,1.71426179 L11.3712375,1.71426179 C11.5955289,1.71426179 11.7773531,1.90613708 11.7773531,2.14282724 C11.7773531,2.3795174 11.5955289,2.57139269 11.3712375,2.57139269 L8.93454372,2.57139269 C8.71025225,2.57139269 8.52842809,2.76326798 8.52842809,2.99995814 C8.52842809,3.2366483 8.71025225,3.42852359 8.93454372,3.42852359 L11.3712375,3.42852359 C11.6684363,3.42747968 11.9548511,3.3109137 12.1757525,3.10109958 L15.5818442,1.02855708 C15.6732183,0.971728102 15.7824755,0.956272757 15.8848065,0.985700531 C15.9899686,1.01509021 16.0794386,1.08802687 16.1329431,1.18798342 C16.1685143,1.2513126 16.1874396,1.32350591 16.1877693,1.39712336 C16.1880065,1.5511974 16.1106917,1.69381446 15.9847109,1.77168956 Z" id="Shape"></path>
        </g>
        <g id="package" transform="translate(7.000000, 18.000000)" fill="#000000" fill-rule="nonzero">
            <path d="M0,0 L0,2.72222222 L0.409090909,2.72222222 L0.409090909,7 L8.59090909,7 L8.59090909,2.72222222 L9,2.72222222 L9,0 L0,0 Z M7.77272727,6.22222222 L1.22727273,6.22222222 L1.22727273,2.72222222 L7.77272727,2.72222222 L7.77272727,6.22222222 Z M8.18181818,1.94444444 L0.818181818,1.94444444 L0.818181818,0.777777778 L8.18181818,0.777777778 L8.18181818,1.94444444 Z M6.95454545,3.11111111 L2.04545455,3.11111111 L2.04545455,5.83333333 L6.95454545,5.83333333 L6.95454545,3.11111111 Z M6.54545455,5.44444444 L2.45454545,5.44444444 L2.45454545,3.5 L6.54545455,3.5 L6.54545455,5.44444444 Z M6.13636364,3.88888889 L2.86363636,3.88888889 L2.86363636,4.27777778 L6.13636364,4.27777778 L6.13636364,3.88888889 Z M4.90909091,4.66666667 L2.86363636,4.66666667 L2.86363636,5.05555556 L4.90909091,5.05555556 L4.90909091,4.66666667 Z" id="Shape"></path>
        </g>
        <g id="arrow_right" transform="translate(1.000000, 0.000000)">
            <rect id="Rectangle" x="0" y="0" width="13" height="13"></rect>
            <polygon id="Path" fill="#000000" fill-rule="nonzero" points="8.15 3 7.3745 3.80571429 9.8935 6.42857143 1 6.42857143 1 7.57142857 9.8935 7.57142857 7.369 10.1942857 8.15 11 12 7"></polygon>
        </g>
        <g id="arrow_left" transform="translate(24.500000, 25.500000) rotate(180.000000) translate(-24.500000, -25.500000) translate(18.000000, 19.000000)">
            <rect id="Rectangle" x="0" y="0" width="13" height="13"></rect>
            <polygon id="Path" fill="#000000" fill-rule="nonzero" points="8.15 3 7.3745 3.80571429 9.8935 6.42857143 1 6.42857143 1 7.57142857 9.8935 7.57142857 7.369 10.1942857 8.15 11 12 7"></polygon>
        </g>
    </g>
</svg>