<?xml version="1.0" encoding="UTF-8"?>
<svg width="32px" height="32px" viewBox="0 0 32 32" version="1.1" xmlns="http://www.w3.org/2000/svg" xmlns:xlink="http://www.w3.org/1999/xlink">
    <title>cash_in_advance</title>
    <g id="cash_in_advance" stroke="none" stroke-width="1" fill="none" fill-rule="evenodd">
        <g id="check-24px" transform="translate(11.000000, 20.000000)" fill="#000000" fill-rule="nonzero">
            <polygon id="Path" points="4.76691302 8.67859806 1.21091529 5.25801641 0 6.41461596 4.76691302 11 15 1.15659955 13.7976123 0"></polygon>
        </g>
        <g id="money" transform="translate(1.000000, 1.000000)" fill-rule="nonzero">
            <g id="Group" fill="#000000">
                <path d="M30,0.0453333333 L30,16.252 L0,16.252 L0,0.0453333333 L30,0.0453333333 Z M23.75,1.292 L6.25,1.292 L6.25,1.292 C6.25,3.80611111 4.011375,5.86311111 1.25,5.86311111 L1.25,10.3199444 C4.011375,10.3199444 6.25,12.3769444 6.25,15.0053333 L23.75,15.0053333 L23.75,14.8910556 C23.75,12.3769444 25.98875,10.3199444 28.75,10.3199444 L28.75,5.86311111 C25.98875,5.86311111 23.75,3.80611111 23.75,1.292 Z" id="Combined-Shape"></path>
                <path d="M20,8 C20,10.761 17.76125,13 15,13 C12.238625,13 10,10.761 10,8 C10,5.2386 12.238625,3 15,3 C17.76125,3 20,5.2386 20,8 Z" id="Path"></path>
            </g>
            <path d="M13,5.7 L15.472,5 L15.719,5 L15.719,10 C15.719,10.3 15.741,10.5 15.786,10.6 C15.836,10.7 15.936,10.7 16.086,10.8 L17,10.8 L17,11 L13.18,11 L13.18,10.8 L14.109,10.8 C14.248,10.7 14.346,10.7 14.401,10.6 C14.456,10.5 14.483,10.3 14.483,10 L14.483,6.8 C14.483,6.3 14.458,6.1 14.408,5.9 C14.373,5.8 14.308,5.8 14.213,5.7 L13.884,5.7 C13.699,5.7 13.442,5.7 13.112,5.8 L13,5.7" id="Path" fill="#ECF0F1"></path>
        </g>
    </g>
</svg>