<?xml version="1.0" encoding="UTF-8"?>
<svg width="24px" height="24px" viewBox="0 0 24 24" version="1.1" xmlns="http://www.w3.org/2000/svg" xmlns:xlink="http://www.w3.org/1999/xlink">
    <title>delete_pin</title>
    <g id="delete_pin" stroke="none" stroke-width="1" fill="none" fill-rule="evenodd">
        <g id="push_pin_black_24dp">
            <rect id="Rectangle" x="0" y="0" width="24" height="24"></rect>
            <path d="M16,9 L16,4 L17,4 C17.55,4 18,3.55 18,3 L18,3 C18,2.45 17.55,2 17,2 L7,2 C6.45,2 6,2.45 6,3 L6,3 C6,3.55 6.45,4 7,4 L8,4 L8,9 C8,10.66 6.66,12 5,12 L5,12 L5,14 L10.97,14 L10.97,21 L11.97,22 L12.97,21 L12.97,14 L19,14 L19,12 L19,12 C17.34,12 16,10.66 16,9 Z" id="Path" fill="#000000" fill-rule="nonzero"></path>
        </g>
        <g id="delete" transform="translate(1.000000, -1.000000)" fill-rule="nonzero">
            <polygon id="Shape" fill="#000000" points="0 3.1 20.9 24 22.2 22.7 1.2 1.8"></polygon>
            <polygon id="Shape-Copy" fill="#FFFFFF" points="1.2 1.8 22.1 22.7 23.4 21.4 2.4 0.5"></polygon>
        </g>
    </g>
</svg>