<?xml version="1.0" encoding="UTF-8"?>
<svg width="32px" height="32px" viewBox="0 0 32 32" version="1.1" xmlns="http://www.w3.org/2000/svg" xmlns:xlink="http://www.w3.org/1999/xlink">
    <title>filter_reset</title>
    <g id="filter_reset" stroke="none" stroke-width="1" fill="none" fill-rule="evenodd">
        <g id="filter_list-24px" transform="translate(1.000000, 1.166667)" fill="#000000" fill-rule="nonzero">
            <path d="M11.8888889,23.8333333 L18.1111111,23.8333333 L18.1111111,20.8333333 L11.8888889,20.8333333 L11.8888889,23.8333333 Z M0.5,1.33333333 L27.5,28.3290538 L28.5,27.3333333 L1.5,0.333333333 L0.5,1.33333333 Z M1,4.83333333 L1,7.83333333 L7,7.83333333 L4,4.83333333 L1,4.83333333 Z M8,4.83333333 L11,7.83333333 L29,7.83333333 L29,4.83333333 L8,4.83333333 Z M8,4.83333333 L11,7.83333333 L29,7.83333333 L29,4.83333333 L8,4.83333333 Z M5.66666667,15.8333333 L15,15.8333333 L12,12.8333333 L5.66666667,12.8333333 L5.66666667,15.8333333 Z M19,15.8333333 L24.3333333,15.8333333 L24.3333333,12.8333333 L16,12.8333333 L19,15.8333333 Z" id="Shape"></path>
        </g>
    </g>
</svg>