<?xml version="1.0" encoding="UTF-8"?>
<svg width="32px" height="32px" viewBox="0 0 32 32" version="1.1" xmlns="http://www.w3.org/2000/svg" xmlns:xlink="http://www.w3.org/1999/xlink">
    <title>multiple_sources</title>
    <g id="multiple_sources" stroke="none" stroke-width="1" fill="none" fill-rule="evenodd">
        <g id="computer" transform="translate(2.000000, 2.000000)" fill="#000000" fill-rule="nonzero">
            <path d="M13.7582333,8.63178344 L13.0073667,8.63178344 L13.0073667,1.50682512 C13.0073667,1.20432672 12.7704,0.959085714 12.4780667,0.959085714 L1.4905,0.959085714 C1.19816667,0.959085714 0.961166667,1.20432672 0.961166667,1.50682512 L0.961166667,8.63178344 L0.241733333,8.63178344 C0.108233333,8.63178344 0,8.74374579 0,8.88199135 C0,9.47584711 0.466933333,9.95908571 1.04093333,9.95908571 L9.4148,9.95908571 L9.4148,9.49336925 C9.4148,9.32770222 9.5446,9.1933888 9.7047,9.1933888 C9.86483333,9.1933888 9.9946,9.32773672 9.9946,9.49336925 L9.9946,9.95908571 L10.4700667,9.95908571 L10.4700667,9.49336925 C10.4700667,9.32770222 10.5999,9.1933888 10.7599667,9.1933888 C10.9201,9.1933888 11.0499,9.32773672 11.0499,9.49336925 L11.0499,9.95908571 L12.9590333,9.95908571 C13.533,9.95908571 14,9.47584711 14,8.88199135 C14,8.74374579 13.8917667,8.63178344 13.7582333,8.63178344 Z M12.0864,8.25695447 L1.8821,8.25695447 L1.8821,1.91204191 L12.0864,1.91204191 L12.0864,8.25695447 L12.0864,8.25695447 Z" id="Shape"></path>
        </g>
        <g id="stay_current_portrait-24px" transform="translate(20.000000, 11.000000)">
            <polygon id="Path" points="0 0 10 0 10 10 0 10"></polygon>
            <path d="M8.14224446,0.00409090909 L3.85346676,0 C3.38170122,0 3,0.368181818 3,0.818181818 L3,8.18181818 C3,8.63181818 3.38170122,9 3.85346676,9 L8.14224446,9 C8.61401001,9 9,8.63181818 9,8.18181818 L9,0.818181818 C9,0.368181818 8.61401001,0.00409090909 8.14224446,0.00409090909 Z M8.14224446,7.36363636 L3.85346676,7.36363636 L3.85346676,1.63636364 L8.14224446,1.63636364 L8.14224446,7.36363636 Z" id="Shape" fill="#000000" fill-rule="nonzero"></path>
        </g>
        <g id="live_tv-24px" transform="translate(1.000000, 13.000000)">
            <polygon id="Path" points="0 0 19 0 19 19 0 19"></polygon>
            <path d="M17.3636364,4 L11.1536364,4 L13.8454545,1.5325 L13.2727273,1 L10,4 L6.72727273,1 L6.14636364,1.5325 L8.84636364,4 L2.63636364,4 C1.73636364,4 1,4.6675 1,5.5 L1,14.5 C1,15.325 1.73636364,16 2.63636364,16 L17.3636364,16 C18.2636364,16 19,15.325 19,14.5 L19,5.5 C19,4.6675 18.2636364,4 17.3636364,4 Z M17.3636364,14.5 L2.63636364,14.5 L2.63636364,5.5 L17.3636364,5.5 L17.3636364,14.5 Z M7.54545455,7 L7.54545455,13 L12.4545455,10 L7.54545455,7 Z" id="Shape" fill="#000000" fill-rule="nonzero"></path>
        </g>
    </g>
</svg>