<?xml version="1.0" encoding="UTF-8"?>
<svg width="32px" height="32px" viewBox="0 0 32 32" version="1.1" xmlns="http://www.w3.org/2000/svg" xmlns:xlink="http://www.w3.org/1999/xlink">
    <title>multiple_sources</title>
    <g id="multiple_sources" stroke="none" stroke-width="1" fill="none" fill-rule="evenodd">
        <g id="live_tv-24px" transform="translate(1.000000, 1.000000)" fill="#000000" fill-rule="nonzero">
            <path d="M17.6891571,9.37774167 L16.7237571,9.37774167 L16.7237571,0.669459274 C16.7237571,0.299739007 16.4190857,0 16.0432286,0 L1.91635714,0 C1.5405,0 1.23578571,0.299739007 1.23578571,0.669459274 L1.23578571,9.37774167 L0.3108,9.37774167 C0.139157143,9.37774167 0,9.51458454 0,9.68355134 C0,10.409375 0.600342857,11 1.33834286,11 L12.1047429,11 L12.1047429,10.430791 C12.1047429,10.2283091 12.2716286,10.0641482 12.4774714,10.0641482 C12.6833571,10.0641482 12.8502,10.2283512 12.8502,10.430791 L12.8502,11 L13.4615143,11 L13.4615143,10.430791 C13.4615143,10.2283091 13.6284429,10.0641482 13.8342429,10.0641482 C14.0401286,10.0641482 14.2070143,10.2283512 14.2070143,10.430791 L14.2070143,11 L16.6616143,11 C17.3995714,11 18,10.409375 18,9.68355134 C18,9.51458454 17.8608429,9.37774167 17.6891571,9.37774167 Z M16,9 L2,9 L2,1 L16,1 L16,9 L16,9 Z" id="Shape"></path>
            <path d="M28.8563259,8.00545455 L23.1379557,8 C22.508935,8 22,8.49090909 22,9.09090909 L22,18.9090909 C22,19.5090909 22.508935,20 23.1379557,20 L28.8563259,20 C29.4853467,20 30,19.5090909 30,18.9090909 L30,9.09090909 C30,8.49090909 29.4853467,8.00545455 28.8563259,8.00545455 Z M29,18 L23,18 L23,10 L29,10 L29,18 Z" id="Shape"></path>
            <path d="M16.3636364,17 L10.1536364,17 L12.8454545,14.5325 L12.2727273,14 L9,17 L5.72727273,14 L5.14636364,14.5325 L7.84636364,17 L1.63636364,17 C0.736363636,17 0,17.6675 0,18.5 L0,27.5 C0,28.325 0.736363636,29 1.63636364,29 L16.3636364,29 C17.2636364,29 18,28.325 18,27.5 L18,18.5 C18,17.6675 17.2636364,17 16.3636364,17 Z M16.3636364,27.5 L1.63636364,27.5 L1.63636364,18.5 L16.3636364,18.5 L16.3636364,27.5 Z M6.54545455,20 L6.54545455,26 L11.4545455,23 L6.54545455,20 Z" id="Shape"></path>
        </g>
    </g>
</svg>