<?xml version="1.0" encoding="UTF-8"?>
<svg width="24px" height="24px" viewBox="0 0 24 24" version="1.1" xmlns="http://www.w3.org/2000/svg" xmlns:xlink="http://www.w3.org/1999/xlink">
    <title>apple</title>
    <g id="apple" stroke="none" stroke-width="1" fill="none" fill-rule="evenodd">
        <g transform="translate(3.750000, 2.250000)" fill="#000000" fill-rule="nonzero" id="Shape">
            <path d="M16.3245,14.238 C16.03125,15.1635 15.5625,16.14825 14.883,17.1675 C13.875,18.70275 12.867,19.46475 11.871,19.46475 C11.47275,19.46475 10.9335,19.33575 10.23,19.08975 C9.5385,18.83175 8.94075,18.71475 8.46075,18.71475 C7.992,18.71475 7.4295,18.84375 6.7965,19.10175 C6.15225,19.371 5.63625,19.5 5.24925,19.5 C4.0425,19.5 2.88225,18.48075 1.722,16.46475 C0.585,14.44875 -0.00075,12.492 -0.00075,10.5705 C-0.00075,8.77725 0.44475,7.3245 1.32375,6.1875 C2.20275,5.0625 3.3045,4.5 4.65225,4.5 C5.22675,4.5 5.90625,4.617 6.72675,4.85175 C7.53525,5.0865 8.0745,5.2035 8.34375,5.2035 C8.6835,5.2035 9.246,5.0745 10.01925,4.80525 C10.7925,4.54725 11.472,4.407 12.0465,4.407 C12.984,4.407 13.81575,4.665 14.5425,5.169 C14.95275,5.45025 15.363,5.8485 15.76125,6.34125 C15.15225,6.85725 14.70675,7.314 14.4255,7.72425 C13.9215,8.451 13.6635,9.2595 13.6635,10.14975 C13.6635,11.1105 13.93275,11.9895 14.472,12.76275 C15.01125,13.536 15.63225,14.028 16.32375,14.2395 L16.3245,14.238 Z M11.91825,0.492 C11.91825,0.97275 11.80125,1.51125 11.5785,2.08575 C11.34375,2.6715 10.98075,3.21075 10.48875,3.70275 C10.06725,4.12425 9.645,4.40625 9.2235,4.5465 C8.95425,4.62825 8.55525,4.69875 8.00475,4.746 C8.028,3.58575 8.33325,2.57775 8.919,1.734 C9.50475,0.89025 10.4895,0.31575 11.8485,3.33066907e-16 C11.87175,0.10575 11.89575,0.1875 11.907,0.258 C11.907,0.33975 11.919,0.41025 11.919,0.49275 L11.91825,0.492 Z"></path>
        </g>
    </g>
</svg>