<?xml version="1.0" encoding="UTF-8"?>
<svg width="24px" height="24px" viewBox="0 0 24 24" version="1.1" xmlns="http://www.w3.org/2000/svg" xmlns:xlink="http://www.w3.org/1999/xlink">
    <title>bid_block</title>
    <g id="bid_block" stroke="none" stroke-width="1" fill="none" fill-rule="evenodd">
        <path d="M12,1.5 C17.796,1.5 22.5,6.204 22.5,12 C22.5,17.796 17.796,22.5 12,22.5 C6.204,22.5 1.5,17.796 1.5,12 C1.5,6.204 6.204,1.5 12,1.5 Z M18.6255,6.855 L13.464,12.015 L17.6,16.2354575 L16.0236073,17.8441993 L11.872,13.607 L8.332,17.147 L12.4247469,17.1470588 L12.4247469,18.3 L7.18,18.299 L6.855,18.6255 C8.18911765,19.6730294 9.84877163,20.3206142 11.6588836,20.393176 L12,20.4 C16.641,20.4 20.4,16.641 20.4,12 C20.4,10.0575 19.7385,8.2725 18.6255,6.855 L18.6255,6.855 Z M12,3.6 C7.359,3.6 3.6,7.359 3.6,12 C3.6,13.9425 4.2615,15.7275 5.3745,17.145 L5.3745,17.145 L8.001,14.518 L5.7,12.1881536 L7.30273134,10.5525327 L9.601,12.918 L10.407,12.112 L8.09064752,9.74844771 L9.66704026,8.13970588 L11.999,10.52 L12.805,9.714 L10.454396,7.33562092 L12.0571274,5.7 L14.404,8.115 L17.145,5.3745 C15.8108824,4.32697059 14.1512284,3.67938581 12.3411164,3.60682404 Z" id="Combined-Shape" fill="#000000" fill-rule="nonzero"></path>
    </g>
</svg>