<?xml version="1.0" encoding="UTF-8"?>
<svg width="24px" height="24px" viewBox="0 0 24 24" version="1.1" xmlns="http://www.w3.org/2000/svg" xmlns:xlink="http://www.w3.org/1999/xlink">
    <title>box_open</title>
    <g id="box_open" stroke="none" stroke-width="1" fill="none" fill-rule="evenodd">
        <g id="dropbox" transform="translate(0.750000, 0.750000)" fill="#000000" fill-rule="nonzero">
            <path d="M4.57009615,9.0423 L11.25,13.3317 L6.62538462,17.3394 L0,12.8538 L4.57009615,9.0423 Z M17.9030769,16.8471 L17.9030769,18.3654 L11.2776923,22.4856 L11.2776923,22.5 L11.2638462,22.4856 L11.25,22.5 L11.25,22.4856 L4.63759615,18.3654 L4.63759615,16.8471 L6.62538462,18.1971 L11.25,14.2029 L11.25,14.175 L11.2638462,14.1894 L11.2776923,14.175 L11.2776923,14.2029 L15.9152885,18.1971 L17.9030769,16.8471 Z M6.62538462,0.7596 L11.25,4.7673 L4.57009615,9.0423 L8.8817842e-16,5.2452 L6.62538462,0.7596 Z M17.9299038,9.0423 L22.5,12.8529 L15.8875962,17.3385 L11.25,13.3308 L17.9299038,9.0423 Z M15.8875962,0.7596 L22.5,5.2452 L17.9299038,9.0423 L11.25,4.7673 L15.8875962,0.7596 Z" id="Shape"></path>
        </g>
    </g>
</svg>