<?xml version="1.0" encoding="UTF-8"?>
<svg width="24px" height="24px" viewBox="0 0 24 24" version="1.1" xmlns="http://www.w3.org/2000/svg" xmlns:xlink="http://www.w3.org/1999/xlink">
    <title>cash_in_advance</title>
    <g id="cash_in_advance" stroke="none" stroke-width="1" fill="none" fill-rule="evenodd">
        <g id="check-24px" transform="translate(8.250000, 15.000000)" fill="#000000" fill-rule="nonzero">
            <polygon id="Path" points="3.57518476 6.50894855 0.90818647 3.9435123 0 4.81096197 3.57518476 8.25 11.25 0.867449664 10.3482092 0"></polygon>
        </g>
        <g id="money" transform="translate(0.750000, 0.750000)" fill-rule="nonzero">
            <g id="Group" fill="#000000">
                <path d="M22.5,0.034 L22.5,12.189 L0,12.189 L0,0.034 L22.5,0.034 Z M17.8125,0.969 L4.6875,0.969 L4.6875,0.969 C4.6875,2.85458333 3.00853125,4.39733333 0.9375,4.39733333 L0.9375,7.73995833 C3.00853125,7.73995833 4.6875,9.28270833 4.6875,11.254 L17.8125,11.254 L17.8125,11.1682917 C17.8125,9.28270833 19.4915625,7.73995833 21.5625,7.73995833 L21.5625,4.39733333 C19.4915625,4.39733333 17.8125,2.85458333 17.8125,0.969 Z" id="Combined-Shape"></path>
                <path d="M15,6 C15,8.07075 13.3209375,9.75 11.25,9.75 C9.17896875,9.75 7.5,8.07075 7.5,6 C7.5,3.92895 9.17896875,2.25 11.25,2.25 C13.3209375,2.25 15,3.92895 15,6 Z" id="Path"></path>
            </g>
            <path d="M9.75,4.275 L11.604,3.75 L11.78925,3.75 L11.78925,7.5 C11.78925,7.725 11.80575,7.875 11.8395,7.95 C11.877,8.025 11.952,8.025 12.0645,8.1 L12.75,8.1 L12.75,8.25 L9.885,8.25 L9.885,8.1 L10.58175,8.1 C10.686,8.025 10.7595,8.025 10.80075,7.95 C10.842,7.875 10.86225,7.725 10.86225,7.5 L10.86225,5.1 C10.86225,4.725 10.8435,4.575 10.806,4.425 C10.77975,4.35 10.731,4.35 10.65975,4.275 L10.413,4.275 C10.27425,4.275 10.0815,4.275 9.834,4.35 L9.75,4.275" id="Path" fill="#ECF0F1"></path>
        </g>
    </g>
</svg>