<?xml version="1.0" encoding="UTF-8"?>
<svg width="24px" height="24px" viewBox="0 0 24 24" version="1.1" xmlns="http://www.w3.org/2000/svg" xmlns:xlink="http://www.w3.org/1999/xlink">
    <title>cash_on_delivery</title>
    <g id="cash_on_delivery" stroke="none" stroke-width="1" fill="none" fill-rule="evenodd">
        <g id="hand_open" transform="translate(12.000000, 18.750000) scale(-1, 1) translate(-12.000000, -18.750000) translate(0.750000, 15.000000)" fill="#000000" fill-rule="nonzero">
            <path d="M22.2839226,0.949808175 C22.071388,0.579019134 21.7190525,0.308201565 21.3052247,0.197546213 C20.8913968,0.0868908604 20.4503639,0.145565977 20.0801481,0.360530683 L16.6255972,2.34264588 C16.466729,1.6017843 15.8103037,1.07210737 15.0501672,1.07141362 L10.9113712,1.07141362 L10.80387,0.999628908 C8.83913879,-0.310759127 6.27900485,-0.324676751 4.30004778,0.964272259 L4.30004778,0.53570681 C4.30004778,0.239844109 4.05939816,0 3.76254181,0 L0.537505972,0 C0.240649621,0 0,0.239844109 0,0.53570681 L0,6.96418853 C0,7.26005124 0.240649621,7.49994887 0.537505972,7.49994887 L3.76254181,7.49994887 C4.05939816,7.49994887 4.30004778,7.26005124 4.30004778,6.96418853 L4.30004778,6.89133241 L4.80207836,7.22347063 C5.06775034,7.40357856 5.38163053,7.49994887 5.70293837,7.49994887 L13.6849021,7.49994887 C13.968125,7.50222936 14.2467105,7.42818855 14.491161,7.28561262 L21.693741,3.14459898 C22.1925961,2.85538637 22.4996417,2.32373135 22.5,1.74854703 C22.5,1.46796958 22.4253528,1.19240847 22.2839226,0.949808175 L22.2839226,0.949808175 Z M3.22503583,6.42848172 L1.07501194,6.42848172 L1.07501194,1.07141362 L3.22503583,1.07141362 L3.22503583,6.42848172 Z M21.1562351,2.21461195 L13.9455925,6.36044696 C13.8665724,6.40645632 13.7764061,6.42998786 13.6849021,6.42848172 L5.70293837,6.42848172 C5.59600137,6.42869096 5.49154888,6.39635739 5.40354754,6.33580445 L4.30004778,5.60563606 L4.30004778,2.14282724 C4.40598411,2.14290396 4.50958113,2.11177978 4.59782609,2.0533642 L4.8418538,1.89265216 C6.46577735,0.809423283 8.58492738,0.809423283 10.2088509,1.89265216 L10.4523411,2.0533642 C10.5405861,2.11177978 10.6441831,2.14290396 10.7501194,2.14282724 L15.0501672,2.14282724 C15.3470236,2.14282724 15.5876732,2.38267135 15.5876732,2.67853405 C15.5876732,2.97439675 15.3470236,3.21424086 15.0501672,3.21424086 L11.8251314,3.21424086 C11.528275,3.21424086 11.2876254,3.45408497 11.2876254,3.74994767 C11.2876254,4.04581037 11.528275,4.28565448 11.8251314,4.28565448 L15.0501672,4.28565448 C15.4435186,4.2843496 15.8225971,4.13864212 16.1149666,3.87637448 L20.6230291,1.28569634 C20.7439654,1.21466013 20.8885706,1.19534095 21.0240086,1.23212566 C21.1631937,1.26886276 21.28161,1.36003359 21.3524247,1.48497928 C21.3995042,1.56414076 21.4245524,1.65438239 21.4249888,1.7464042 C21.4253027,1.93899675 21.3229743,2.11726807 21.1562351,2.21461195 Z" id="Shape"></path>
        </g>
        <g id="money" transform="translate(0.750000, 0.750000)">
            <g id="Group" fill="#000000" fill-rule="nonzero">
                <path d="M22.5,0.034 L22.5,12.189 L0,12.189 L0,0.034 L22.5,0.034 Z M17.8125,0.969 L4.6875,0.969 L4.6875,0.969 C4.6875,2.85458333 3.00853125,4.39733333 0.9375,4.39733333 L0.9375,7.73995833 C3.00853125,7.73995833 4.6875,9.28270833 4.6875,11.254 L17.8125,11.254 L17.8125,11.1682917 C17.8125,9.28270833 19.4915625,7.73995833 21.5625,7.73995833 L21.5625,4.39733333 C19.4915625,4.39733333 17.8125,2.85458333 17.8125,0.969 Z" id="Combined-Shape"></path>
                <path d="M15,6 C15,8.07075 13.3209375,9.75 11.25,9.75 C9.17896875,9.75 7.5,8.07075 7.5,6 C7.5,3.92895 9.17896875,2.25 11.25,2.25 C13.3209375,2.25 15,3.92895 15,6 Z" id="Path"></path>
            </g>
            <path d="M9.75,4.275 L11.604,3.75 L11.78925,3.75 L11.78925,7.5 C11.78925,7.725 11.80575,7.875 11.8395,7.95 C11.877,8.025 11.952,8.025 12.0645,8.1 L12.75,8.1 L12.75,8.25 L9.885,8.25 L9.885,8.1 L10.58175,8.1 C10.686,8.025 10.7595,8.025 10.80075,7.95 C10.842,7.875 10.86225,7.725 10.86225,7.5 L10.86225,5.1 C10.86225,4.725 10.8435,4.575 10.806,4.425 C10.77975,4.35 10.731,4.35 10.65975,4.275 L10.413,4.275 C10.27425,4.275 10.0815,4.275 9.834,4.35 L9.75,4.275" id="Path" fill="#ECF0F1" fill-rule="nonzero"></path>
            <g id="Group" transform="translate(0.750000, 4.500000)"></g>
        </g>
    </g>
</svg>