<?xml version="1.0" encoding="UTF-8"?>
<svg width="24px" height="24px" viewBox="0 0 24 24" version="1.1" xmlns="http://www.w3.org/2000/svg" xmlns:xlink="http://www.w3.org/1999/xlink">
    <title>check</title>
    <g id="check" stroke="none" stroke-width="1" fill="none" fill-rule="evenodd">
        <path d="M22.125,4.125 L1.875,4.125 C1.25378906,4.125 0.75,4.62878906 0.75,5.25 L0.75,18.75 C0.75,19.3712109 1.25378906,19.875 1.875,19.875 L22.125,19.875 C22.7462109,19.875 23.25,19.3712109 23.25,18.75 L23.25,5.25 C23.25,4.62878906 22.7462109,4.125 22.125,4.125 Z M6.9375,14.5270313 L6.9375,15.09375 C6.9375,15.2491406 6.81164062,15.375 6.65625,15.375 L6.09375,15.375 C5.93835937,15.375 5.8125,15.2491406 5.8125,15.09375 L5.8125,14.5210547 C5.41558594,14.5006641 5.02957031,14.3621484 4.70964844,14.1220312 C4.57253906,14.0190234 4.56550781,13.8137109 4.68960937,13.6952344 L5.10269531,13.3011328 C5.20007812,13.2083203 5.34492187,13.2041016 5.45882812,13.2754687 C5.59488281,13.3605469 5.74921875,13.40625 5.90953125,13.40625 L6.89777344,13.40625 C7.12628906,13.40625 7.31261719,13.198125 7.31261719,12.9425391 C7.31261719,12.7333594 7.18570312,12.5491406 7.00429687,12.495 L5.42226562,12.0203906 C4.76871094,11.8242187 4.31203125,11.1970312 4.31203125,10.4949609 C4.31203125,9.63292969 4.98175781,8.93261719 5.81214844,8.91046875 L5.81214844,8.34375 C5.81214844,8.18835938 5.93800781,8.0625 6.09339844,8.0625 L6.65589844,8.0625 C6.81128906,8.0625 6.93714844,8.18835938 6.93714844,8.34375 L6.93714844,8.91644531 C7.3340625,8.93683594 7.72007812,9.075 8.04,9.31546875 C8.17710938,9.41847656 8.18414062,9.62378906 8.06003906,9.74226562 L7.64695312,10.1363672 C7.54957031,10.2291797 7.40472656,10.2333984 7.29082031,10.1620312 C7.15476562,10.0766016 7.00042969,10.03125 6.84011719,10.03125 L5.851875,10.03125 C5.62335937,10.03125 5.43703125,10.239375 5.43703125,10.4949609 C5.43703125,10.7041406 5.56394531,10.8883594 5.74535156,10.9425 L7.32738281,11.4171094 C7.9809375,11.6132812 8.43761719,12.2404687 8.43761719,12.9425391 C8.43761719,13.8049219 7.76789062,14.5048828 6.9375,14.5270312 L6.9375,14.5270313 Z M15.375,13.96875 C15.375,14.1241406 15.2491406,14.25 15.09375,14.25 L11.15625,14.25 C11.0008594,14.25 10.875,14.1241406 10.875,13.96875 L10.875,13.40625 C10.875,13.2508594 11.0008594,13.125 11.15625,13.125 L15.09375,13.125 C15.2491406,13.125 15.375,13.2508594 15.375,13.40625 L15.375,13.96875 Z M21,13.96875 C21,14.1241406 20.8741406,14.25 20.71875,14.25 L17.90625,14.25 C17.7508594,14.25 17.625,14.1241406 17.625,13.96875 L17.625,13.40625 C17.625,13.2508594 17.7508594,13.125 17.90625,13.125 L20.71875,13.125 C20.8741406,13.125 21,13.2508594 21,13.40625 L21,13.96875 Z M21,10.59375 C21,10.7491406 20.8741406,10.875 20.71875,10.875 L11.15625,10.875 C11.0008594,10.875 10.875,10.7491406 10.875,10.59375 L10.875,10.03125 C10.875,9.87585938 11.0008594,9.75 11.15625,9.75 L20.71875,9.75 C20.8741406,9.75 21,9.87585938 21,10.03125 L21,10.59375 Z" id="Shape" fill="#000000" fill-rule="nonzero"></path>
    </g>
</svg>