<?xml version="1.0" encoding="UTF-8"?>
<svg width="24px" height="24px" viewBox="0 0 24 24" version="1.1" xmlns="http://www.w3.org/2000/svg" xmlns:xlink="http://www.w3.org/1999/xlink">
    <title>delivery_address</title>
    <g id="delivery_address" stroke="none" stroke-width="1" fill="none" fill-rule="evenodd">
        <path d="M12,1 C16.14225,1 19.5,4.0779375 19.5,7.875 C19.5,14.5384615 12.4544379,22.4936095 12.0208648,22.9768484 L12,23 C12,23 4.5,14.75 4.5,7.875 C4.5,4.0779375 7.85775,1 12,1 Z M14.0486111,4.4375 L8.32312092,4.4375 C8.10607298,4.4375 7.91462418,4.51585209 7.74877451,4.67255626 C7.58292484,4.82926044 7.5,5.01015213 7.5,5.21523132 L7.5,5.21523132 L7.5,9.4670865 L8.32352941,9.4670865 C8.32352941,9.78023754 8.44485294,10.0515751 8.6875,10.2810991 C8.93014706,10.5106231 9.21732026,10.6252565 9.54901961,10.6249996 C9.88071895,10.6247418 10.1678922,10.5101085 10.4105392,10.2810991 C10.6531863,10.0520897 10.7745098,9.78075217 10.7745098,9.4670865 L10.7745098,9.4670865 L13.2254902,9.4670865 C13.2254902,9.78023754 13.3468137,10.0515751 13.5894608,10.2810991 C13.8321078,10.5106231 14.119281,10.6252565 14.4509804,10.6249996 C14.7826797,10.6247418 15.0698529,10.5101085 15.3125,10.2810991 C15.5551471,10.0520897 15.6764706,9.78075217 15.6764706,9.4670865 L15.6764706,9.4670865 L16.5,9.4670865 L16.5,7.53105658 L15.2741013,5.99334861 L14.0486111,5.99334861 L14.0486111,4.4375 Z M14.4509804,8.88813019 C14.6296296,8.88813019 14.7764161,8.94538254 14.8913399,9.05988723 C15.0062636,9.17439192 15.0637255,9.31012501 15.0637255,9.4670865 C15.0637255,9.62404799 15.0062636,9.75978109 14.8913399,9.87428578 C14.7764161,9.98879047 14.6296296,10.0460428 14.4509804,10.0460428 C14.2723312,10.0460428 14.1255447,9.98879047 14.0106209,9.87428578 C13.8956972,9.75978109 13.8382353,9.62404799 13.8382353,9.4670865 C13.8382353,9.31012501 13.8956972,9.17439192 14.0106209,9.05988723 C14.1255447,8.94538254 14.2723312,8.88813019 14.4509804,8.88813019 Z M9.54901961,8.88813019 C9.72766885,8.88813019 9.87445534,8.94538254 9.98937908,9.05988723 C10.1043028,9.17439192 10.1617647,9.31012501 10.1617647,9.4670865 C10.1617647,9.62404799 10.1043028,9.75978109 9.98937908,9.87428578 C9.87445534,9.98879047 9.72766885,10.0460428 9.54901961,10.0460428 C9.37037037,10.0460428 9.22358388,9.98879047 9.10866013,9.87428578 C8.99373638,9.75978109 8.93627451,9.62404799 8.93627451,9.4670865 C8.93627451,9.31012501 8.99373638,9.17439192 9.10866013,9.05988723 C9.22358388,8.94538254 9.37037037,8.88813019 9.54901961,8.88813019 Z M15.0637255,6.57230492 L15.8680556,7.53105658 L14.0490196,7.53105658 L14.0490196,6.57230492 L15.0637255,6.57230492 Z" id="Combined-Shape" fill="#000000" fill-rule="nonzero"></path>
    </g>
</svg>