<?xml version="1.0" encoding="UTF-8"?>
<svg width="24px" height="24px" viewBox="0 0 24 24" version="1.1" xmlns="http://www.w3.org/2000/svg" xmlns:xlink="http://www.w3.org/1999/xlink">
    <title>ideal</title>
    <g id="ideal" stroke="none" stroke-width="1" fill="none" fill-rule="evenodd">
        <path d="M1.6640562,2.82710162 L1.6640562,21.1724499 L12.361943,21.1724499 C18.8219249,21.1724499 22.3360844,18.0372741 22.3360844,11.9763297 C22.3360844,5.74775788 18.5269076,2.82710162 12.361943,2.82710162 L1.6640562,2.82710162 Z M12.361943,1.875 C21.8354449,1.875 23.25,8.20432178 23.25,11.9763297 C23.25,18.5209036 19.3834485,22.125 12.361943,22.125 C12.361943,22.125 0.979216348,22.125 0.75,22.125 C0.75,21.8852331 0.75,2.11416893 0.75,1.875 C0.979216348,1.875 12.361943,1.875 12.361943,1.875 Z" id="Shape" fill="#000000" fill-rule="nonzero"></path>
        <path d="M7.5,9.15929446 C7.5,9.71968142 7.5,10.6213532 7.5,11.1815211 C7.82197747,11.1815211 8.15084844,11.1815211 8.15084844,11.1815211 C8.60181014,11.1815211 9.01829672,11.057221 9.01829672,10.1545417 C9.01829672,9.27237946 8.55481741,9.15929446 8.15084844,9.15929446 C8.15084844,9.15929446 7.82197747,9.15929446 7.5,9.15929446 L7.5,9.15929446 Z M18.3571854,8.15347472 L19.40998,8.15347472 C19.40998,8.15347472 19.40998,10.4426719 19.40998,11.1815211 C19.6434431,11.1815211 20.2846219,11.1815211 20.9700955,11.1815211 C20.5422183,5.68710037 16.0099655,4.5 11.8917264,4.5 L7.50090035,4.5 L7.50090035,8.15554833 L8.15084844,8.15554833 C9.33577551,8.15554833 10.0719887,8.92185103 10.0719887,10.1545417 C10.0719887,11.426339 9.35346401,12.1854863 8.15084844,12.1854863 L7.50090035,12.1854863 L7.50090035,19.5 L11.8917264,19.5 C18.5875752,19.5 20.9177084,16.5345709 21,12.1854863 L18.3571854,12.1854863 L18.3571854,8.15347472 L18.3571854,8.15347472 Z M15.4237983,10.4032878 L16.1854938,10.4032878 L15.8372102,9.26344247 L15.7739545,9.26344247 L15.4237983,10.4032878 Z M13.7808644,12.1866983 L15.0558035,8.15332869 L16.5536387,8.15332869 L17.8282041,12.1866983 L16.7322401,12.1866983 L16.4933061,11.4064644 L15.1161376,11.4064644 L14.8765283,12.1866983 L13.7808644,12.1866983 Z M13.2752647,11.1815211 L13.2752647,12.1854863 L10.6706735,12.1854863 L10.6706735,8.15497882 L13.1911739,8.15497882 L13.1911739,9.15857892 C13.1911739,9.15857892 12.2941963,9.15857892 11.7236167,9.15857892 C11.7236167,9.29697077 11.7236167,9.45564607 11.7236167,9.62582847 L13.1115787,9.62582847 L13.1115787,10.6291511 L11.7236167,10.6291511 C11.7236167,10.8306422 11.7236167,11.0206261 11.7236167,11.1815211 C12.3106843,11.1815211 13.2752647,11.1815211 13.2752647,11.1815211 L13.2752647,11.1815211 Z" id="Shape" fill="#D50172" fill-rule="nonzero"></path>
        <path d="M6,10.1247725 C6,11.1604106 5.16081708,12 4.1251542,12 C3.08998675,12 2.25,11.1604106 2.25,10.1247725 C2.25,9.08995592 3.08998675,8.25 4.1251542,8.25 C5.16081708,8.25 6,9.08995592 6,10.1247725 M2.62118304,19.6329098 L5.63803454,19.6329098 L5.63803454,12.75 L2.62118304,12.75 L2.62118304,19.6329098 Z" id="Shape" fill="#000000" fill-rule="nonzero"></path>
    </g>
</svg>