<?xml version="1.0" encoding="UTF-8"?>
<svg width="24px" height="24px" viewBox="0 0 24 24" version="1.1" xmlns="http://www.w3.org/2000/svg" xmlns:xlink="http://www.w3.org/1999/xlink">
    <title>invoice_address</title>
    <g id="invoice_address" stroke="none" stroke-width="1" fill="none" fill-rule="evenodd">
        <path d="M12,1 C16.14225,1 19.5,4.0779375 19.5,7.875 C19.5,14.5384615 12.4544379,22.4936095 12.0208648,22.9768484 L12,23 C12,23 4.5,14.75 4.5,7.875 C4.5,4.0779375 7.85775,1 12,1 Z M12.905325,3.75 C11.9866481,3.75 11.1607237,4.00786024 10.4275519,4.52358071 C9.69438007,5.03930119 9.17957969,5.69815854 8.88315074,6.50015276 L8.88315074,6.50015276 L7.21644896,6.50015276 L6.75,7.42405011 L8.66082903,7.42405011 C8.64597598,7.50990168 8.63854946,7.66021831 8.63854946,7.875 C8.63854946,8.08978169 8.64597598,8.24009832 8.66082903,8.32594989 L8.66082903,8.32594989 L7.21644896,8.32594989 L6.75,9.24984724 L8.88315074,9.24984724 C9.17926367,10.0518415 9.69406405,10.7106988 10.4275519,11.2264193 C11.1610397,11.7421398 11.9869641,12 12.905325,12 C14.0016064,12 14.9496734,11.6491084 15.749526,10.9473253 L15.749526,10.9473253 L14.9052723,10.1311243 C14.3275835,10.6181258 13.6609344,10.8616265 12.905325,10.8616265 L12.905325,10.8616265 C12.3875224,10.8597934 11.8616612,10.702297 11.3282155,10.3873042 C10.7947698,10.0723114 10.4095386,9.69285357 10.1725219,9.24893067 L10.1725219,9.24893067 L12.905799,9.24893067 L13.372248,8.32503333 L9.86155588,8.32503333 C9.83184978,8.12461115 9.81699673,7.97429452 9.81699673,7.87408344 C9.81699673,7.77387235 9.83184978,7.62355572 9.86155588,7.42313354 L9.86155588,7.42313354 L12.905799,7.42313354 L13.372248,6.4992362 L10.1725219,6.4992362 C10.4098546,6.0553133 10.7950859,5.67585546 11.3282155,5.36086268 C11.8613452,5.0458699 12.3872064,4.88837351 12.905799,4.88837351 C13.6614084,4.88837351 14.3280575,5.13187424 14.9057463,5.61887568 L14.9057463,5.61887568 L15.75,4.8026747 C15.424181,4.51640096 14.9796956,4.26938673 14.4165438,4.06163204 C13.853392,3.85387735 13.3496524,3.75 12.905325,3.75 Z" id="Combined-Shape" fill="#000000" fill-rule="nonzero"></path>
    </g>
</svg>