<?xml version="1.0" encoding="UTF-8"?>
<svg width="24px" height="24px" viewBox="0 0 24 24" version="1.1" xmlns="http://www.w3.org/2000/svg" xmlns:xlink="http://www.w3.org/1999/xlink">
    <title>multiple_sources</title>
    <g id="multiple_sources" stroke="none" stroke-width="1" fill="none" fill-rule="evenodd">
        <g id="live_tv-24px" transform="translate(0.750000, 0.750000)" fill="#000000" fill-rule="nonzero">
            <path d="M13.2668679,7.03330625 L12.5428179,7.03330625 L12.5428179,0.502094456 C12.5428179,0.224804256 12.3143143,0 12.0324214,0 L1.43726786,0 C1.155375,0 0.926839286,0.224804256 0.926839286,0.502094456 L0.926839286,7.03330625 L0.2331,7.03330625 C0.104367857,7.03330625 0,7.1359384 0,7.2626635 C0,7.80703128 0.450257143,8.25 1.00375714,8.25 L9.07855714,8.25 L9.07855714,7.82309324 C9.07855714,7.6712318 9.20372143,7.54811116 9.35810357,7.54811116 C9.51251786,7.54811116 9.63765,7.67126342 9.63765,7.82309324 L9.63765,8.25 L10.0961357,8.25 L10.0961357,7.82309324 C10.0961357,7.6712318 10.2213321,7.54811116 10.3756821,7.54811116 C10.5300964,7.54811116 10.6552607,7.67126342 10.6552607,7.82309324 L10.6552607,8.25 L12.4962107,8.25 C13.0496786,8.25 13.5,7.80703128 13.5,7.2626635 C13.5,7.1359384 13.3956321,7.03330625 13.2668679,7.03330625 Z M12,6.75 L1.5,6.75 L1.5,0.75 L12,0.75 L12,6.75 L12,6.75 Z" id="Shape"></path>
            <path d="M21.6422445,6.00409091 L17.3534668,6 C16.8817012,6 16.5,6.36818182 16.5,6.81818182 L16.5,14.1818182 C16.5,14.6318182 16.8817012,15 17.3534668,15 L21.6422445,15 C22.11401,15 22.5,14.6318182 22.5,14.1818182 L22.5,6.81818182 C22.5,6.36818182 22.11401,6.00409091 21.6422445,6.00409091 Z M21.75,13.5 L17.25,13.5 L17.25,7.5 L21.75,7.5 L21.75,13.5 Z" id="Shape"></path>
            <path d="M12.2727273,12.75 L7.61522727,12.75 L9.63409091,10.899375 L9.20454545,10.5 L6.75,12.75 L4.29545455,10.5 L3.85977273,10.899375 L5.88477273,12.75 L1.22727273,12.75 C0.552272727,12.75 0,13.250625 0,13.875 L0,20.625 C0,21.24375 0.552272727,21.75 1.22727273,21.75 L12.2727273,21.75 C12.9477273,21.75 13.5,21.24375 13.5,20.625 L13.5,13.875 C13.5,13.250625 12.9477273,12.75 12.2727273,12.75 Z M12.2727273,20.625 L1.22727273,20.625 L1.22727273,13.875 L12.2727273,13.875 L12.2727273,20.625 Z M4.90909091,15 L4.90909091,19.5 L8.59090909,17.25 L4.90909091,15 Z" id="Shape"></path>
        </g>
    </g>
</svg>