<?xml version="1.0" encoding="UTF-8"?>
<svg width="24px" height="24px" viewBox="0 0 24 24" version="1.1" xmlns="http://www.w3.org/2000/svg" xmlns:xlink="http://www.w3.org/1999/xlink">
    <title>paypal</title>
    <g id="paypal" stroke="none" stroke-width="1" fill="none" fill-rule="evenodd">
        <path d="M21.1006339,7.53099962 C20.067857,12.1939146 16.8797,14.6545137 11.8549612,14.6545137 L10.1837234,14.6540919 L9.02113219,22.1596698 L7.62054813,22.1604784 L7.5474844,22.6437884 C7.50013468,22.964331 7.74220581,23.25 8.05734068,23.25 L11.6353553,23.25 C12.058254,23.25 12.4179045,22.9377539 12.4868899,22.5117464 L12.5211753,22.327394 L13.1959607,17.9808382 L13.2388174,17.7433667 C13.3033097,17.3173592 13.6662091,17.0051131 14.090352,17.0051131 L14.6210491,17.0051131 C18.0851824,17.0051131 20.7989782,15.5725848 21.594177,11.4328455 C21.8929641,9.85913497 21.7794976,8.52377489 21.1018436,7.53099962 L21.1006339,7.53099962 L21.1006339,7.53099962 Z M18.9619818,2.4461903 C17.937396,1.25950042 16.085296,0.75 13.7172224,0.75 L6.84373619,0.75 C6.35959392,0.75 5.94485182,1.10587337 5.87178809,1.59417537 L3.00730269,20.0577916 C2.95100145,20.4219264 3.22735793,20.752453 3.59105219,20.752453 L7.83773474,20.752453 L8.90521177,13.8751641 L8.87092642,14.0902419 C8.94399016,13.6023618 9.35465395,13.2461017 9.83838148,13.2461017 L11.8549958,13.2469103 C15.8171307,13.2469103 18.91795,11.6130145 19.8262352,6.875782 C19.8523639,6.7349865 19.8772484,6.5987963 19.8952206,6.46636767 C20.1630057,4.71740982 19.8952206,3.52242338 18.9620509,2.44661216 L18.9620509,2.4461903 L18.9619818,2.4461903 Z" id="Shape" fill="#000000" fill-rule="nonzero"></path>
    </g>
</svg>