<?xml version="1.0" encoding="UTF-8"?>
<svg width="24px" height="24px" viewBox="0 0 24 24" version="1.1" xmlns="http://www.w3.org/2000/svg" xmlns:xlink="http://www.w3.org/1999/xlink">
    <title>phone_block</title>
    <g id="phone_block" stroke="none" stroke-width="1" fill="none" fill-rule="evenodd">
        <path d="M12,1.5 C17.796,1.5 22.5,6.204 22.5,12 C22.5,17.796 17.796,22.5 12,22.5 C6.204,22.5 1.5,17.796 1.5,12 C1.5,6.204 6.204,1.5 12,1.5 Z M9.78707074,15.6930899 L6.855,18.6255 C8.2725,19.7385 10.0575,20.4 12,20.4 C13.8963467,20.4 15.6454347,19.7723975 17.050992,18.7134645 C14.3089311,18.5028715 11.7884776,17.3972451 9.78707074,15.6930899 Z M5.2866183,6.94957676 L5.220192,7.038288 C4.20144,8.42832 3.6,10.1436 3.6,12 C3.6,13.9425 4.2615,15.7275 5.3745,17.145 L5.3745,17.145 L8.30683539,14.2130007 C6.60303895,12.2123972 5.49705748,9.69249523 5.2866183,6.94957676 Z M18.6255,6.855 L11.167016,14.3120433 C11.8744756,14.9011072 12.6405168,15.3982766 13.425,15.7725 L13.425,15.7725 L14.6025,14.295 C14.805,14.0925 15.0975,14.025 15.36,14.115 C16.1925,14.385 17.085,14.535 18.0075,14.535 C18.4125,14.535 18.75,14.8725 18.75,15.2775 L18.75,15.2775 L18.7508782,17.0009466 C19.7871641,15.6040156 20.4,13.8739047 20.4,12 C20.4,10.0575 19.7385,8.2725 18.6255,6.855 L18.6255,6.855 Z M12,3.6 C10.1256464,3.6 8.39515564,4.21312952 6.99804968,5.24986653 L8.7375,5.25 C9.1425,5.25 9.48,5.5875 9.48,5.9925 C9.48,6.915 9.6225,7.8075 9.9,8.64 C9.9825,8.9025 9.9225,9.195 9.72,9.405 L9.72,9.405 L8.2575,10.65 C8.62943441,11.422885 9.11641042,12.1605153 9.68384006,12.8361342 L17.145,5.3745 C15.7275,4.2615 13.9425,3.6 12,3.6 Z" id="Combined-Shape" fill="#000000"></path>
    </g>
</svg>