<?xml version="1.0" encoding="UTF-8"?>
<svg width="24px" height="24px" viewBox="0 0 24 24" version="1.1" xmlns="http://www.w3.org/2000/svg" xmlns:xlink="http://www.w3.org/1999/xlink">
    <title>shopping_cart_bolt</title>
    <g id="shopping_cart_bolt" stroke="none" stroke-width="1" fill="none" fill-rule="evenodd">
        <g id="shopping_cart" transform="translate(1.000000, 2.000000)" fill="#000000" fill-rule="nonzero">
            <path d="M11.2137077,11.2067308 C11.5853066,11.2067308 11.9077164,11.3490585 12.1809372,11.6337139 C12.4541579,11.9183694 12.5907683,12.2469618 12.5907683,12.6194912 C12.5907683,12.9920206 12.4541579,13.3152377 12.1809372,13.5891426 C11.9077164,13.8630475 11.5853066,14 11.2137077,14 C10.8421088,14 10.5143371,13.8630475 10.2303926,13.5891426 C9.9464482,13.3152377 9.80447597,12.9920206 9.80447597,12.6194912 C9.80447597,12.2469618 9.9464482,11.9183694 10.2303926,11.6337139 C10.5143371,11.3490585 10.8421088,11.2067308 11.2137077,11.2067308 Z M0.00139874113,0 L2.29603357,0 L2.95204316,1.38050881 L13.3118194,1.38050881 C13.5085756,1.38050881 13.6724615,1.45178953 13.8034769,1.59435096 C13.9344923,1.73691239 14,1.90681757 14,2.10406651 C14,2.12603499 13.9671296,2.2356437 13.9013888,2.43289263 L11.4095314,6.96844952 C11.1470343,7.4503539 10.7427981,7.69130609 10.1968229,7.69130609 L4.98441403,7.69130609 L4.36127485,8.84184696 L4.32840444,8.94070513 C4.32840444,9.05008013 4.38295534,9.10476763 4.49205715,9.10476763 L12.5893696,9.10476763 L12.5893696,10.5182292 L4.19692277,10.5182292 C3.82532388,10.5182292 3.50291404,10.3759014 3.22969328,10.091246 C2.95647251,9.80659054 2.81986212,9.47799813 2.81986212,9.10546875 C2.81986212,8.88625134 2.87441303,8.66703392 2.98351484,8.44781651 L3.93395944,6.70622997 L1.40993106,1.38191106 L0,1.38191106 L0,0.00140224359 L0.00139874113,0 Z M4.19762214,11.2067308 C4.56922103,11.2067308 4.89699271,11.3490585 5.18093716,11.6337139 C5.46488161,11.9183694 5.60685383,12.2469618 5.60685383,12.6194912 C5.60685383,12.9920206 5.46488161,13.3152377 5.18093716,13.5891426 C4.89699271,13.8630475 4.56922103,14 4.19762214,14 C3.82602325,14 3.50361341,13.8630475 3.23039265,13.5891426 C2.95717188,13.3152377 2.82056149,12.9920206 2.82056149,12.6194912 C2.82056149,12.2469618 2.95717188,11.9183694 3.23039265,11.6337139 C3.50361341,11.3490585 3.82602325,11.2067308 4.19762214,11.2067308 L4.19762214,11.2067308 Z" id="Shape"></path>
        </g>
        <g id="bolt" transform="translate(15.000000, 9.000000)" fill="#000000" fill-rule="nonzero">
            <path d="M3.21777997,14 L2.39170149,14 L3.21777997,8.568 L0.400620016,8.568 C0,8.568 -0.100155004,8.39792593 0.100155004,8.05777778 C0.175471567,7.93644444 0.188024327,7.89988889 0.137813285,7.94811111 C1.4149899,5.78485185 2.967526,3.13548148 4.79542159,0 L5.62150006,0 L4.79542159,5.432 L7.61258154,5.432 C7.96299051,5.432 8.07569828,5.60207407 7.95070483,5.94222222 L3.21777997,14 Z" id="Path"></path>
        </g>
    </g>
</svg>