<?xml version="1.0" encoding="UTF-8"?>
<svg width="24px" height="24px" viewBox="0 0 24 24" version="1.1" xmlns="http://www.w3.org/2000/svg" xmlns:xlink="http://www.w3.org/1999/xlink">
    <title>webshop_block</title>
    <g id="webshop_block" stroke="none" stroke-width="1" fill="none" fill-rule="evenodd">
        <path d="M12,1.5 C17.796,1.5 22.5,6.204 22.5,12 C22.5,17.796 17.796,22.5 12,22.5 C6.204,22.5 1.5,17.796 1.5,12 C1.5,6.204 6.204,1.5 12,1.5 Z M18.6255,6.855 L17.9706136,7.50865342 C18.2057362,7.54933855 18.390481,7.72917174 18.4290421,7.95614571 L18.4364643,8.04445714 L18.4364643,15.12672 L19.2409643,15.12672 C19.3840357,15.12672 19.5,15.2380114 19.5,15.3754286 C19.5,15.9263726 19.0641333,16.3815342 18.506029,16.4397737 L18.3846786,16.4460686 L16.3391786,16.4460686 L16.3391786,15.9831429 C16.3391786,15.8185029 16.2001071,15.68496 16.0285357,15.68496 C15.8815357,15.68496 15.7583345,15.7830479 15.7261342,15.9147746 L15.7179286,15.9831429 L15.7179286,16.4460686 L15.2085,16.4460686 L15.2085,15.9831429 C15.2085,15.8185029 15.0694643,15.68496 14.8978929,15.68496 C14.7508622,15.68496 14.6276829,15.7830479 14.5954895,15.9147746 L14.5872857,15.9831429 L14.5872857,16.4460686 L9.033,16.446 L6.855,18.6255 C8.18911765,19.6730294 9.84877163,20.3206142 11.6588836,20.393176 L12,20.4 C16.641,20.4 20.4,16.641 20.4,12 C20.4,10.0575 19.7385,8.2725 18.6255,6.855 L18.6255,6.855 Z M12,3.6 C7.359,3.6 3.6,7.359 3.6,12 C3.6,13.9425 4.2615,15.7275 5.3745,17.145 L5.3745,17.145 L6.073,16.446 L5.61528571,16.4460686 C5.00028571,16.4460686 4.5,15.9657257 4.5,15.3754286 C4.5,15.2576424 4.58519825,15.1590507 4.69961558,15.1332855 L4.759,15.12672 L5.52982143,15.12672 L5.52982143,8.04445714 C5.52982143,7.77384 5.73550357,7.54932343 6.00497321,7.50712629 L6.09696429,7.5 L15.019,7.5 L17.145,5.3745 C15.8108824,4.32697059 14.1512284,3.67938581 12.3411164,3.60682404 Z M14.072,8.447 L6.51653571,8.44724571 L6.51653571,14.7541371 L7.765,14.754 L10.89,11.629 L10.3544364,10.1028 L10.0764364,9.91336 C9.92032727,9.80708 9.87218182,9.58168 9.96883636,9.40996 C10.0534727,9.25967 10.2209636,9.20042812 10.3659974,9.25913844 L10.4264727,9.2916 L10.7986182,9.5452 C10.8393455,9.57288 10.873899,9.60982222 10.900167,9.65320593 L10.9330909,9.72276 L11.1354909,10.29116 L12.228,10.291 L14.072,8.447 Z M17.4497143,8.44724571 L17.032,8.447 L14.809,10.67 L14.0522545,12.8378 C14.0288655,12.904712 13.977456,12.9533968 13.9161044,12.9701942 L13.8685091,12.9766 L12.503,12.976 L12.1267941,13.3518275 C12.2607146,13.4209414 12.3534545,13.5705974 12.3534545,13.74408 C12.3534545,13.9832414 12.1772013,14.17712 11.9597818,14.17712 C11.7890002,14.17712 11.6436181,14.0574968 11.5891055,13.8902674 L10.725,14.754 L17.4497143,14.7541371 L17.4497143,8.44724571 Z M13.4066909,13.31104 C13.6241104,13.31104 13.8003636,13.5049186 13.8003636,13.74408 C13.8003636,13.9832414 13.6241104,14.17712 13.4066909,14.17712 C13.1892715,14.17712 13.0130182,13.9832414 13.0130182,13.74408 C13.0130182,13.5049186 13.1892715,13.31104 13.4066909,13.31104 Z" id="Combined-Shape" fill="#000000" fill-rule="nonzero"></path>
    </g>
</svg>