<?xml version="1.0" encoding="UTF-8"?>
<svg width="24px" height="24px" viewBox="0 0 24 24" version="1.1" xmlns="http://www.w3.org/2000/svg" xmlns:xlink="http://www.w3.org/1999/xlink">
    <title>webshop</title>
    <g id="webshop" stroke="none" stroke-width="1" fill="none" fill-rule="evenodd">
        <g id="basket" transform="translate(7.500000, 7.500000)" fill="#000000" fill-rule="nonzero">
            <circle id="Oval" cx="3.47251429" cy="6.77725714" r="1"></circle>
            <circle id="Oval" cx="5.74622857" cy="6.77725714" r="1"></circle>
            <path d="M0.512971429,1.3048 L0.949828571,1.57542857 L2.45771429,5.48257143 C2.50371429,5.60205714 2.61845714,5.68085714 2.74657143,5.68085714 L6.47194286,5.68085714 C6.6,5.68085714 6.71474286,5.60205714 6.76068571,5.48257143 L7.99811429,2.26508571 C8.0348,2.16988571 8.02211429,2.06291429 7.96445714,1.97891429 C7.90674286,1.89491429 7.81131429,1.84451429 7.70931429,1.84451429 L2.1772,1.84451429 L1.85914286,1.03251429 C1.818,0.927257143 1.74382857,0.838171429 1.64782857,0.778857143 L1.06302857,0.416571429 C0.817942857,0.2648 0.495885714,0.340285714 0.343885714,0.585657143 C0.192,0.830971429 0.267657143,1.15297143 0.512971429,1.3048 Z" id="Path"></path>
        </g>
        <g id="computer" transform="translate(0.000000, 4.530686)" fill="#000000" fill-rule="nonzero">
            <path d="M23.5855429,12.7112 L22.2983429,12.7112 L22.2983429,0.907428571 C22.2983429,0.406285714 21.8921143,2.66453526e-15 21.3909714,2.66453526e-15 L2.55514286,2.66453526e-15 C2.054,2.66453526e-15 1.64771429,0.406285714 1.64771429,0.907428571 L1.64771429,12.7112 L0.4144,12.7112 C0.185542857,12.7112 0,12.8966857 0,13.1257143 C0,14.1095429 0.800457143,14.9101143 1.78445714,14.9101143 L16.1396571,14.9101143 L16.1396571,14.1385714 C16.1396571,13.8641143 16.3621714,13.6416 16.6366286,13.6416 C16.9111429,13.6416 17.1336,13.8641714 17.1336,14.1385714 L17.1336,14.9101143 L17.9486857,14.9101143 L17.9486857,14.1385714 C17.9486857,13.8641143 18.1712571,13.6416 18.4456571,13.6416 C18.7201714,13.6416 18.9426857,13.8641714 18.9426857,14.1385714 L18.9426857,14.9101143 L22.2154857,14.9101143 C23.1994286,14.9101143 24,14.1095429 24,13.1257143 C24,12.8966857 23.8144571,12.7112 23.5855429,12.7112 Z M20.7195429,12.0902286 L3.22645714,12.0902286 L3.22645714,1.57874286 L20.7195429,1.57874286 L20.7195429,12.0902286 L20.7195429,12.0902286 Z" id="Shape"></path>
        </g>
    </g>
</svg>